  0
SECTION
  2
HEADER
  9
$ACADVER
  1
AC1027
  9
$ACADMAINTVER
 70
105
  9
$DWGCODEPAGE
  3
ANSI_1252
  9
$LASTSAVEDBY
  1
ezdxf
  9
$REQUIREDVERSIONS
160
0
  9
$INSBASE
 10
0.0
 20
0.0
 30
0.0
  9
$EXTMIN
 10
1e+20
 20
1e+20
 30
1e+20
  9
$EXTMAX
 10
-1e+20
 20
-1e+20
 30
-1e+20
  9
$LIMMIN
 10
0.0
 20
0.0
  9
$LIMMAX
 10
420.0
 20
297.0
  9
$ORTHOMODE
 70
0
  9
$REGENMODE
 70
1
  9
$FILLMODE
 70
1
  9
$QTEXTMODE
 70
0
  9
$MIRRTEXT
 70
1
  9
$LTSCALE
 40
1.0
  9
$ATTMODE
 70
1
  9
$TEXTSIZE
 40
2.5
  9
$TRACEWID
 40
1.0
  9
$TEXTSTYLE
  7
Standard
  9
$CLAYER
  8
0
  9
$CELTYPE
  6
ByLayer
  9
$CECOLOR
 62
256
  9
$CELTSCALE
 40
1.0
  9
$DISPSILH
 70
0
  9
$DIMSCALE
 40
1.0
  9
$DIMASZ
 40
2.5
  9
$DIMEXO
 40
0.625
  9
$DIMDLI
 40
3.75
  9
$DIMRND
 40
0.0
  9
$DIMDLE
 40
0.0
  9
$DIMEXE
 40
1.25
  9
$DIMTP
 40
0.0
  9
$DIMTM
 40
0.0
  9
$DIMTXT
 40
2.5
  9
$DIMCEN
 40
2.5
  9
$DIMTSZ
 40
0.0
  9
$DIMTOL
 70
0
  9
$DIMLIM
 70
0
  9
$DIMTIH
 70
0
  9
$DIMTOH
 70
0
  9
$DIMSE1
 70
0
  9
$DIMSE2
 70
0
  9
$DIMTAD
 70
1
  9
$DIMZIN
 70
8
  9
$DIMBLK
  1

  9
$DIMASO
 70
1
  9
$DIMSHO
 70
1
  9
$DIMPOST
  1

  9
$DIMAPOST
  1

  9
$DIMALT
 70
0
  9
$DIMALTD
 70
3
  9
$DIMALTF
 40
0.03937007874
  9
$DIMLFAC
 40
1.0
  9
$DIMTOFL
 70
1
  9
$DIMTVP
 40
0.0
  9
$DIMTIX
 70
0
  9
$DIMSOXD
 70
0
  9
$DIMSAH
 70
0
  9
$DIMBLK1
  1

  9
$DIMBLK2
  1

  9
$DIMSTYLE
  2
ISO-25
  9
$DIMCLRD
 70
0
  9
$DIMCLRE
 70
0
  9
$DIMCLRT
 70
0
  9
$DIMTFAC
 40
1.0
  9
$DIMGAP
 40
0.625
  9
$DIMJUST
 70
0
  9
$DIMSD1
 70
0
  9
$DIMSD2
 70
0
  9
$DIMTOLJ
 70
0
  9
$DIMTZIN
 70
8
  9
$DIMALTZ
 70
0
  9
$DIMALTTZ
 70
0
  9
$DIMUPT
 70
0
  9
$DIMDEC
 70
2
  9
$DIMTDEC
 70
2
  9
$DIMALTU
 70
2
  9
$DIMALTTD
 70
3
  9
$DIMTXSTY
  7
Standard
  9
$DIMAUNIT
 70
0
  9
$DIMADEC
 70
0
  9
$DIMALTRND
 40
0.0
  9
$DIMAZIN
 70
0
  9
$DIMDSEP
 70
44
  9
$DIMATFIT
 70
3
  9
$DIMFRAC
 70
0
  9
$DIMLDRBLK
  1

  9
$DIMLUNIT
 70
2
  9
$DIMLWD
 70
-2
  9
$DIMLWE
 70
-2
  9
$DIMTMOVE
 70
0
  9
$DIMFXL
 40
1.0
  9
$DIMFXLON
 70
0
  9
$DIMJOGANG
 40
0.785398163397
  9
$DIMTFILL
 70
0
  9
$DIMTFILLCLR
 70
0
  9
$DIMARCSYM
 70
0
  9
$DIMLTYPE
  6

  9
$DIMLTEX1
  6

  9
$DIMLTEX2
  6

  9
$DIMTXTDIRECTION
 70
0
  9
$LUNITS
 70
2
  9
$LUPREC
 70
4
  9
$SKETCHINC
 40
1.0
  9
$FILLETRAD
 40
10.0
  9
$AUNITS
 70
0
  9
$AUPREC
 70
2
  9
$MENU
  1
.
  9
$ELEVATION
 40
0.0
  9
$PELEVATION
 40
0.0
  9
$THICKNESS
 40
0.0
  9
$LIMCHECK
 70
0
  9
$CHAMFERA
 40
0.0
  9
$CHAMFERB
 40
0.0
  9
$CHAMFERC
 40
0.0
  9
$CHAMFERD
 40
0.0
  9
$SKPOLY
 70
0
  9
$TDCREATE
 40
2461132.7058796296
  9
$TDUCREATE
 40
2458532.153996898
  9
$TDUPDATE
 40
2461132.7058796296
  9
$TDUUPDATE
 40
2458532.1544311
  9
$TDINDWG
 40
0.0
  9
$TDUSRTIMER
 40
0.0
  9
$USRTIMER
 70
1
  9
$ANGBASE
 50
0.0
  9
$ANGDIR
 70
0
  9
$PDMODE
 70
0
  9
$PDSIZE
 40
0.0
  9
$PLINEWID
 40
0.0
  9
$SPLFRAME
 70
0
  9
$SPLINETYPE
 70
6
  9
$SPLINESEGS
 70
8
  9
$HANDSEED
  5
33
  9
$SURFTAB1
 70
6
  9
$SURFTAB2
 70
6
  9
$SURFTYPE
 70
6
  9
$SURFU
 70
6
  9
$SURFV
 70
6
  9
$UCSBASE
  2

  9
$UCSNAME
  2

  9
$UCSORG
 10
0.0
 20
0.0
 30
0.0
  9
$UCSXDIR
 10
1.0
 20
0.0
 30
0.0
  9
$UCSYDIR
 10
0.0
 20
1.0
 30
0.0
  9
$UCSORTHOREF
  2

  9
$UCSORTHOVIEW
 70
0
  9
$UCSORGTOP
 10
0.0
 20
0.0
 30
0.0
  9
$UCSORGBOTTOM
 10
0.0
 20
0.0
 30
0.0
  9
$UCSORGLEFT
 10
0.0
 20
0.0
 30
0.0
  9
$UCSORGRIGHT
 10
0.0
 20
0.0
 30
0.0
  9
$UCSORGFRONT
 10
0.0
 20
0.0
 30
0.0
  9
$UCSORGBACK
 10
0.0
 20
0.0
 30
0.0
  9
$PUCSBASE
  2

  9
$PUCSNAME
  2

  9
$PUCSORG
 10
0.0
 20
0.0
 30
0.0
  9
$PUCSXDIR
 10
1.0
 20
0.0
 30
0.0
  9
$PUCSYDIR
 10
0.0
 20
1.0
 30
0.0
  9
$PUCSORTHOREF
  2

  9
$PUCSORTHOVIEW
 70
0
  9
$PUCSORGTOP
 10
0.0
 20
0.0
 30
0.0
  9
$PUCSORGBOTTOM
 10
0.0
 20
0.0
 30
0.0
  9
$PUCSORGLEFT
 10
0.0
 20
0.0
 30
0.0
  9
$PUCSORGRIGHT
 10
0.0
 20
0.0
 30
0.0
  9
$PUCSORGFRONT
 10
0.0
 20
0.0
 30
0.0
  9
$PUCSORGBACK
 10
0.0
 20
0.0
 30
0.0
  9
$USERI1
 70
0
  9
$USERI2
 70
0
  9
$USERI3
 70
0
  9
$USERI4
 70
0
  9
$USERI5
 70
0
  9
$USERR1
 40
0.0
  9
$USERR2
 40
0.0
  9
$USERR3
 40
0.0
  9
$USERR4
 40
0.0
  9
$USERR5
 40
0.0
  9
$WORLDVIEW
 70
1
  9
$SHADEDGE
 70
3
  9
$SHADEDIF
 70
70
  9
$TILEMODE
 70
1
  9
$MAXACTVP
 70
64
  9
$PINSBASE
 10
0.0
 20
0.0
 30
0.0
  9
$PLIMCHECK
 70
0
  9
$PEXTMIN
 10
1e+20
 20
1e+20
 30
1e+20
  9
$PEXTMAX
 10
-1e+20
 20
-1e+20
 30
-1e+20
  9
$PLIMMIN
 10
0.0
 20
0.0
  9
$PLIMMAX
 10
420.0
 20
297.0
  9
$UNITMODE
 70
0
  9
$VISRETAIN
 70
1
  9
$PLINEGEN
 70
0
  9
$PSLTSCALE
 70
1
  9
$TREEDEPTH
 70
3020
  9
$CMLSTYLE
  2
Standard
  9
$CMLJUST
 70
0
  9
$CMLSCALE
 40
20.0
  9
$PROXYGRAPHICS
 70
1
  9
$MEASUREMENT
 70
1
  9
$CELWEIGHT
370
-1
  9
$ENDCAPS
280
0
  9
$JOINSTYLE
280
0
  9
$LWDISPLAY
290
0
  9
$INSUNITS
 70
6
  9
$HYPERLINKBASE
  1

  9
$STYLESHEET
  1

  9
$XEDIT
290
1
  9
$CEPSNTYPE
380
0
  9
$PSTYLEMODE
290
1
  9
$FINGERPRINTGUID
  2
{BDB36CEE-5BD2-467E-9C32-20D23856ACA5}
  9
$VERSIONGUID
  2
{CD7A35DB-EA2F-4BEA-947C-520C0FC33C23}
  9
$EXTNAMES
290
1
  9
$PSVPSCALE
 40
0.0
  9
$OLESTARTUP
290
0
  9
$SORTENTS
280
127
  9
$INDEXCTL
280
0
  9
$HIDETEXT
280
1
  9
$XCLIPFRAME
280
1
  9
$HALOGAP
280
0
  9
$OBSCOLOR
 70
257
  9
$OBSLTYPE
280
0
  9
$INTERSECTIONDISPLAY
280
0
  9
$INTERSECTIONCOLOR
 70
257
  9
$DIMASSOC
280
2
  9
$PROJECTNAME
  1

  9
$CAMERADISPLAY
290
0
  9
$LENSLENGTH
 40
50.0
  9
$CAMERAHEIGHT
 40
0.0
  9
$STEPSPERSEC
 40
24.0
  9
$STEPSIZE
 40
100.0
  9
$3DDWFPREC
 40
2.0
  9
$PSOLWIDTH
 40
0.005
  9
$PSOLHEIGHT
 40
0.08
  9
$LOFTANG1
 40
1.570796326795
  9
$LOFTANG2
 40
1.570796326795
  9
$LOFTMAG1
 40
0.0
  9
$LOFTMAG2
 40
0.0
  9
$LOFTPARAM
 70
7
  9
$LOFTNORMALS
280
1
  9
$LATITUDE
 40
37.795
  9
$LONGITUDE
 40
-122.394
  9
$NORTHDIRECTION
 40
0.0
  9
$TIMEZONE
 70
-8000
  9
$LIGHTGLYPHDISPLAY
280
1
  9
$TILEMODELIGHTSYNCH
280
1
  9
$CMATERIAL
347
20
  9
$SOLIDHIST
280
0
  9
$SHOWHIST
280
1
  9
$DWFFRAME
280
2
  9
$DGNFRAME
280
2
  9
$REALWORLDSCALE
290
1
  9
$INTERFERECOLOR
 62
256
  9
$CSHADOW
280
0
  9
$SHADOWPLANELOCATION
 40
0.0
  0
ENDSEC
  0
SECTION
  2
CLASSES
  0
CLASS
  1
ACDBDICTIONARYWDFLT
  2
AcDbDictionaryWithDefault
  3
ObjectDBX Classes
 90
0
 91
0
280
0
281
0
  0
CLASS
  1
SUN
  2
AcDbSun
  3
SCENEOE
 90
1153
 91
0
280
0
281
0
  0
CLASS
  1
VISUALSTYLE
  2
AcDbVisualStyle
  3
ObjectDBX Classes
 90
4095
 91
0
280
0
281
0
  0
CLASS
  1
MATERIAL
  2
AcDbMaterial
  3
ObjectDBX Classes
 90
1153
 91
0
280
0
281
0
  0
CLASS
  1
SCALE
  2
AcDbScale
  3
ObjectDBX Classes
 90
1153
 91
0
280
0
281
0
  0
CLASS
  1
TABLESTYLE
  2
AcDbTableStyle
  3
ObjectDBX Classes
 90
4095
 91
0
280
0
281
0
  0
CLASS
  1
MLEADERSTYLE
  2
AcDbMLeaderStyle
  3
ACDB_MLEADERSTYLE_CLASS
 90
4095
 91
0
280
0
281
0
  0
CLASS
  1
DICTIONARYVAR
  2
AcDbDictionaryVar
  3
ObjectDBX Classes
 90
0
 91
0
280
0
281
0
  0
CLASS
  1
CELLSTYLEMAP
  2
AcDbCellStyleMap
  3
ObjectDBX Classes
 90
1152
 91
0
280
0
281
0
  0
CLASS
  1
MENTALRAYRENDERSETTINGS
  2
AcDbMentalRayRenderSettings
  3
SCENEOE
 90
1024
 91
0
280
0
281
0
  0
CLASS
  1
ACDBDETAILVIEWSTYLE
  2
AcDbDetailViewStyle
  3
ObjectDBX Classes
 90
1025
 91
0
280
0
281
0
  0
CLASS
  1
ACDBSECTIONVIEWSTYLE
  2
AcDbSectionViewStyle
  3
ObjectDBX Classes
 90
1025
 91
0
280
0
281
0
  0
CLASS
  1
RASTERVARIABLES
  2
AcDbRasterVariables
  3
ISM
 90
0
 91
0
280
0
281
0
  0
CLASS
  1
ACDBPLACEHOLDER
  2
AcDbPlaceHolder
  3
ObjectDBX Classes
 90
0
 91
0
280
0
281
0
  0
CLASS
  1
LAYOUT
  2
AcDbLayout
  3
ObjectDBX Classes
 90
0
 91
0
280
0
281
0
  0
ENDSEC
  0
SECTION
  2
TABLES
  0
TABLE
  2
VPORT
  5
8
330
0
100
AcDbSymbolTable
 70
1
  0
VPORT
  5
23
330
8
100
AcDbSymbolTableRecord
100
AcDbViewportTableRecord
  2
*Active
 70
0
 10
0.0
 20
0.0
 11
1.0
 21
1.0
 12
0.0
 22
0.0
 13
0.0
 23
0.0
 14
0.5
 24
0.5
 15
0.5
 25
0.5
 16
0.0
 26
0.0
 36
1.0
 17
0.0
 27
0.0
 37
0.0
 40
1000.0
 41
1.34
 42
50.0
 43
0.0
 44
0.0
 50
0.0
 51
0.0
 71
0
 72
1000
 73
1
 74
3
 75
0
 76
0
 77
0
 78
0
281
0
 65
0
146
0.0
  0
ENDTAB
  0
TABLE
  2
LTYPE
  5
2
330
0
100
AcDbSymbolTable
 70
3
  0
LTYPE
  5
24
330
2
100
AcDbSymbolTableRecord
100
AcDbLinetypeTableRecord
  2
ByBlock
 70
0
  3

 72
65
 73
0
 40
0.0
  0
LTYPE
  5
25
330
2
100
AcDbSymbolTableRecord
100
AcDbLinetypeTableRecord
  2
ByLayer
 70
0
  3

 72
65
 73
0
 40
0.0
  0
LTYPE
  5
26
330
2
100
AcDbSymbolTableRecord
100
AcDbLinetypeTableRecord
  2
Continuous
 70
0
  3

 72
65
 73
0
 40
0.0
  0
ENDTAB
  0
TABLE
  2
LAYER
  5
1
330
0
100
AcDbSymbolTable
 70
2
  0
LAYER
  5
27
330
1
100
AcDbSymbolTableRecord
100
AcDbLayerTableRecord
  2
0
 70
0
 62
7
  6
Continuous
370
-3
390
13
347
21
  0
LAYER
  5
28
330
1
100
AcDbSymbolTableRecord
100
AcDbLayerTableRecord
  2
Defpoints
 70
0
 62
7
  6
Continuous
290
0
370
-3
390
13
347
21
  0
ENDTAB
  0
TABLE
  2
STYLE
  5
5
330
0
100
AcDbSymbolTable
 70
1
  0
STYLE
  5
29
330
5
100
AcDbSymbolTableRecord
100
AcDbTextStyleTableRecord
  2
Standard
 70
0
 40
0.0
 41
1.0
 50
0.0
 71
0
 42
2.5
  3
txt
  4

  0
ENDTAB
  0
TABLE
  2
VIEW
  5
7
330
0
100
AcDbSymbolTable
 70
0
  0
ENDTAB
  0
TABLE
  2
UCS
  5
6
330
0
100
AcDbSymbolTable
 70
0
  0
ENDTAB
  0
TABLE
  2
APPID
  5
3
330
0
100
AcDbSymbolTable
 70
3
  0
APPID
  5
2A
330
3
100
AcDbSymbolTableRecord
100
AcDbRegAppTableRecord
  2
ACAD
 70
0
  0
APPID
  5
30
330
3
100
AcDbSymbolTableRecord
100
AcDbRegAppTableRecord
  2
HATCHBACKGROUNDCOLOR
 70
0
  0
APPID
  5
31
330
3
100
AcDbSymbolTableRecord
100
AcDbRegAppTableRecord
  2
EZDXF
 70
0
  0
ENDTAB
  0
TABLE
  2
DIMSTYLE
  5
4
330
0
100
AcDbSymbolTable
 70
1
100
AcDbDimStyleTable
  0
DIMSTYLE
105
2B
330
4
100
AcDbSymbolTableRecord
100
AcDbDimStyleTableRecord
  2
Standard
 70
0
 40
1.0
 41
2.5
 42
0.625
 43
3.75
 44
1.25
 45
0.0
 46
0.0
 47
0.0
 48
0.0
 49
2.5
140
2.5
141
2.5
142
0.0
143
0.03937007874
144
1.0
145
0.0
146
1.0
147
0.625
148
0.0
 69
0
 70
0
 71
0
 72
0
 73
0
 74
0
 75
0
 76
0
 77
1
 78
8
 79
3
170
0
171
3
172
1
173
0
174
0
175
0
176
0
177
0
178
0
179
2
271
2
272
2
273
2
274
3
275
0
276
0
277
2
278
44
279
0
280
0
281
0
282
0
283
0
284
8
285
0
286
0
288
0
289
3
290
0
371
-2
372
-2
  0
ENDTAB
  0
TABLE
  2
BLOCK_RECORD
  5
9
330
0
100
AcDbSymbolTable
 70
2
  0
BLOCK_RECORD
  5
17
330
9
100
AcDbSymbolTableRecord
100
AcDbBlockTableRecord
  2
*Model_Space
340
1A
 70
0
280
1
281
0
  0
BLOCK_RECORD
  5
1B
330
9
100
AcDbSymbolTableRecord
100
AcDbBlockTableRecord
  2
*Paper_Space
340
1E
 70
0
280
1
281
0
  0
ENDTAB
  0
ENDSEC
  0
SECTION
  2
BLOCKS
  0
BLOCK
  5
18
330
17
100
AcDbEntity
  8
0
100
AcDbBlockBegin
  2
*Model_Space
 70
0
 10
0.0
 20
0.0
 30
0.0
  3
*Model_Space
  1

  0
ENDBLK
  5
19
330
17
100
AcDbEntity
  8
0
100
AcDbBlockEnd
  0
BLOCK
  5
1C
330
1B
100
AcDbEntity
  8
0
100
AcDbBlockBegin
  2
*Paper_Space
 70
0
 10
0.0
 20
0.0
 30
0.0
  3
*Paper_Space
  1

  0
ENDBLK
  5
1D
330
1B
100
AcDbEntity
  8
0
100
AcDbBlockEnd
  0
ENDSEC
  0
SECTION
  2
ENTITIES
  0
LWPOLYLINE
  5
2F
330
17
100
AcDbEntity
  8
0
100
AcDbPolyline
 90
399
 70
1
 10
1.0
 20
0.001583443941096751
 10
0.9999376947588287
 20
0.001596023463368482
 10
0.9997507945630869
 20
0.0016337667639247774
 10
0.9994393459922217
 20
0.0016966878285552245
 10
0.9990034266657467
 20
0.0017848092540587658
 10
0.9984431452238967
 20
0.0018981611972672312
 10
0.9977586413005529
 20
0.0020367799398498926
 10
0.9969500854884439
 20
0.002200706104088039
 10
0.9960176792966289
 20
0.002389982563480338
 10
0.9949616551002786
 20
0.0026046520997152142
 10
0.9937822760827619
 20
0.002844754864049826
 10
0.9924798361700553
 20
0.003110325706310346
 10
0.9910546599574902
 20
0.0034013914384529217
 10
0.9895071026288572
 20
0.0037179681018044653
 10
0.9878375498678869
 20
0.004060058307675489
 10
0.9860464177621284
 20
0.004427648719978371
 10
0.9841341526992535
 20
0.004820707745800437
 10
0.9821012312558058
 20
0.005239183495618914
 10
0.9799481600784284
 20
0.005683002069076979
 10
0.9776754757575974
 20
0.0061520662150833716
 10
0.9752837446938913
 20
0.006646254406590695
 10
0.9727735629568335
 20
0.0071654203609195465
 10
0.9701455561363377
 20
0.007709393026124751
 10
0.9674003791867991
 20
0.008277977042857324
 10
0.9645387162638652
 20
0.008870953679698859
 10
0.9615612805539303
 20
0.009488082228273007
 10
0.9584688140963943
 20
0.010129101832827704
 10
0.9552620875987311
 20
0.010793733717680937
 10
0.9519419002444117
 20
0.011481683765185357
 10
0.9485090794937318
 20
0.012192645386931461
 10
0.9449644808775901
 20
0.01292630262200694
 10
0.9413089877842735
 20
0.013682333388465995
 10
0.9375435112392968
 20
0.01446041280792926
 10
0.9336689896783572
 20
0.015260216518587166
 10
0.929686388713456
 20
0.016081423888951597
 10
0.9255967008922472
 20
0.01692372104358463
 10
0.9214009454506752
 20
0.017786803612791783
 10
0.9171001680589588
 20
0.01867037912092498
 10
0.9126954405609882
 20
0.019574168932478077
 10
0.9081878607071996
 20
0.0204979096815262
 10
0.9035785518809927
 20
0.021441354118166764
 10
0.8988686628187597
 20
0.0224042713153355
 10
0.8940593673235961
 20
0.02338644619053581
 10
0.8891518639727649
 20
0.02438767830943907
 10
0.8841473758189853
 20
0.025407779951766518
 10
0.8790471500856227
 20
0.026446573434103834
 10
0.8738524578558546
 20
0.02750388769906301
 10
0.8685645937558895
 20
0.028579554195212735
 10
0.8631848756323197
 20
0.02967340208715906
 10
0.8577146442236856
 20
0.030785252849782622
 10
0.852155262826336
 20
0.031914914314631254
 10
0.8465081169546659
 20
0.033062174249552975
 10
0.8407746139958168
 20
0.03422679356455628
 10
0.8349561828589275
 20
0.03540849924735755
 10
0.8290542736190187
 20
0.036606977140890715
 10
0.8230703571556048
 20
0.0378218646820117
 10
0.8170059247861193
 20
0.03905274372556723
 10
0.8108624878942475
 20
0.040299133580782014
 10
0.8046415775532584
 20
0.04156048438746052
 10
0.798344744144428
 20
0.04283617095775139
 10
0.791973556970653
 20
0.04412548720517443
 10
0.7855296038653474
 20
0.04542764127630289
 10
0.77901449079672
 20
0.04674175149200478
 10
0.772429841467535
 20
0.04806684319459597
 10
0.7657772969104506
 20
0.04940184658481393
 10
0.7590585150790388
 20
0.05074559561837442
 10
0.7522751704345887
 20
0.05209682801626479
 10
0.7454289535287968
 20
0.053454186426116955
 10
0.7385215705824448
 20
0.05481622075428072
 10
0.7315547430601739
 20
0.05618139166989124
 10
0.7245302072414599
 20
0.057548075263616764
 10
0.7174497137878965
 20
0.058914568825219116
 10
0.710315027306892
 20
0.06027909768588699
 10
0.7031279259118944
 20
0.06163982305384641
 10
0.6958902007792465
 20
0.06299485075533338
 10
0.6886036557017879
 20
0.06434224077792679
 10
0.6812701066393122
 20
0.06568001749977684
 10
0.6738913812659912
 20
0.06700618047666722
 10
0.6664693185148804
 20
0.06831871564934876
 10
0.6590057681196191
 20
0.06961560682635129
 10
0.6515025901534364
 20
0.0708948472926717
 10
0.6439616545655832
 20
0.07215445139243745
 10
0.6363848407153015
 20
0.07339246593391754
 10
0.6287740369034482
 20
0.074606981268097
 10
0.6211311399018915
 20
0.07579614189740272
 10
0.613458054480795
 20
0.07695815647898488
 10
0.6057566929339094
 20
0.07809130709707221
 10
0.598028974601989
 20
0.07919395769116334
 10
0.5902768253944511
 20
0.08026456154096234
 10
0.5825021773093996
 20
0.08130166772475937
 10
0.5747069679521304
 20
0.0823039264851143
 10
0.5668931400522395
 20
0.08327009345389788
 10
0.5590626409794539
 20
0.08419903270765672
 10
0.5512174222583066
 20
0.08508971864353541
 10
0.5433594390817753
 20
0.085941236685262
 10
0.5354906498240078
 20
0.08675278284761755
 10
0.527613015552254
 20
0.0875236622060169
 10
0.5197284995381264
 20
0.08825328633498607
 10
0.511839066768312
 20
0.08894116979510841
 10
0.5039466834548565
 20
0.0895869257621382
 10
0.4960533165451433
 20
0.0901902609041742
 10
0.48816093323168797
 20
0.09075096962283156
 10
0.4802715004618736
 20
0.09126892778205128
 10
0.4723869844477459
 20
0.09174408605341311
 10
0.46450935017599193
 20
0.0921764630094719
 10
0.4566405609182245
 20
0.09256613809667977
 10
0.4487825777416933
 20
0.09291324461690038
 10
0.440937359020546
 20
0.09321796284142383
 10
0.43310685994776044
 20
0.09348051337386896
 10
0.4252930320478695
 20
0.09370115086857464
 10
0.41749782269060026
 20
0.0938801581992402
 10
0.40972317460554886
 20
0.09401784115892954
 10
0.40197102539801094
 20
0.09411452375738903
 10
0.39424330706609045
 20
0.0941705441652743
 10
0.38654194551920495
 20
0.09418625133767178
 10
0.37886886009810833
 20
0.09416200233161137
 10
0.3712259630965516
 20
0.09409816031447846
 10
0.3636151592846984
 20
0.09399509324272019
 10
0.3560383454344167
 20
0.09385317317339663
 10
0.34849740984656363
 20
0.0936727761553151
 10
0.3409942318803809
 20
0.09345428263206353
 10
0.33353068148511933
 20
0.09319807827655306
 10
0.32610861873400876
 20
0.09290455516598795
 10
0.3187298933606877
 20
0.09257411319776074
 10
0.31139634429821195
 20
0.09220716164083713
 10
0.30410979922075343
 20
0.09180412071391024
 10
0.29687207408810545
 20
0.0913654230810837
 10
0.2896849726931079
 20
0.09089151515813905
 10
0.28255028621210343
 20
0.09038285812755466
 10
0.2754697927585398
 20
0.08983992856830886
 10
0.2684452569398261
 20
0.08926321861699607
 10
0.2614784294175551
 20
0.08865323558973667
 10
0.2545710464712032
 20
0.088010501009532
 10
0.24772482956541125
 20
0.08733554900082084
 10
0.24094148492096118
 20
0.08662892403170452
 10
0.2342227030895493
 20
0.08589117800424396
 10
0.2275701585324647
 20
0.08512286671399255
 10
0.22098550920327992
 20
0.08432454572107702
 10
0.21447039613465257
 20
0.08349676569621127
 10
0.20802644302934675
 20
0.08264006732557658
 10
0.20165525585557204
 20
0.08175497587804013
 10
0.19535842244674156
 20
0.08084199555626069
 10
0.18913751210575241
 20
0.07990160376940648
 10
0.1829940752138806
 20
0.0789342454790477
 10
0.176929642844395
 20
0.07794032778092291
 10
0.17094572638098116
 20
0.07692021489335062
 10
0.1650438171410723
 20
0.07587422372778274
 10
0.15922538600418312
 20
0.07480262021813379
 10
0.15349188304533407
 20
0.07370561658289251
 10
0.14784473717366398
 20
0.07258336968752677
 10
0.14228535577631435
 20
0.07143598066428708
 10
0.13681512436768023
 20
0.07026349593223948
 10
0.1314354062441105
 20
0.06906590974232515
 10
0.12614754214414542
 20
0.06784316835063763
 10
0.12095284991437727
 20
0.06659517589819039
 10
0.11585262418101461
 20
0.06532180204754784
 10
0.11084813602723492
 20
0.06402289139620433
 10
0.1059406326764038
 20
0.0626982746539836
 10
0.10113133718124029
 20
0.061347781537498355
 10
0.09642144811900738
 20
0.059971255299418866
 10
0.09181213929280041
 20
0.058568568774545714
 10
0.08730455943901183
 20
0.057139641789090076
 10
0.08289983194104122
 20
0.05568445974476792
 10
0.07859905454932464
 20
0.05420309315597796
 10
0.07440329910775273
 20
0.052695717887081224
 10
0.07031361128654401
 20
0.05116263580827447
 10
0.06633101032164263
 20
0.049604295563349714
 10
0.062456488760703144
 20
0.04802131312131548
 10
0.05869101221572648
 20
0.046414491766945065
 10
0.05503551912240989
 20
0.04478484117326439
 10
0.051490920506268245
 20
0.043133595192185986
 10
0.04805809975558817
 20
0.04146222799825321
 10
0.0447379124012689
 20
0.03977246822500078
 10
0.041531185903605605
 20
0.03806631074391516
 10
0.038438719446069636
 20
0.03634602575242897
 10
0.03546128373613472
 20
0.03461416485976257
 10
0.03259962081320089
 20
0.032873563887586374
 10
0.029854443863662206
 20
0.03112734213616963
 10
0.027226437043166407
 20
0.029378897905573277
 10
0.024716255306108603
 20
0.02763190010508986
 10
0.022324524242402555
 20
0.02589027583202714
 10
0.0200518399215715
 20
0.024158193852460805
 10
0.01789876874419416
 20
0.022440043971073735
 10
0.01586584730074636
 20
0.02074041233392632
 10
0.01395358223787152
 20
0.019064052766157615
 10
0.0121624501321132
 20
0.017415854305383727
 10
0.010492897371142729
 20
0.01580080515006954
 10
0.008945340042509797
 20
0.014223953299523931
 10
0.007520163829944748
 20
0.012690364217533813
 10
0.006217723917238127
 20
0.011205075904135012
 10
0.005038344899721436
 20
0.009773051808777085
 10
0.003982320703371123
 20
0.008399132062369637
 10
0.0030499145115561177
 20
0.007087983544647019
 10
0.002241358699447027
 20
0.005844049336266566
 10
0.0015568547761034002
 20
0.004671498131450911
 10
0.0009965733342532923
 20
0.0035741742062700686
 10
0.0005606540077782163
 20
0.002555548549405222
 10
0.0002492054369130914
 20
0.0016186717661107676
 10
6.23052411713454e-05
 20
0.0007661293618900878
 10
0.0
 20
0.0
 10
6.23052411713454e-05
 20
-0.0017708110579751142
 10
0.0002492054369130914
 20
-0.003455481379227585
 10
0.0005606540077782163
 20
-0.005055954725173251
 10
0.0009965733342532923
 20
-0.00657465681963711
 10
0.0015568547761034002
 20
-0.008014441667523759
 10
0.0022413586994470824
 20
-0.00937853543435296
 10
0.0030499145115561177
 20
-0.010670478646526196
 10
0.003982320703371123
 20
-0.01189406747411938
 10
0.005038344899721436
 20
-0.013053294849446869
 10
0.006217723917238127
 20
-0.01415229215589972
 10
0.007520163829944748
 20
-0.015195272193066373
 10
0.008945340042509797
 20
-0.016186474086494762
 10
0.010492897371142784
 20
-0.017130110764356762
 10
0.0121624501321132
 20
-0.01803031956956167
 10
0.01395358223787152
 20
-0.018891116515468577
 10
0.015865847300746416
 20
-0.019716354627281496
 10
0.01789876874419416
 20
-0.02050968674056904
 10
0.020051839921571557
 20
-0.021274533054265743
 10
0.02232452424240261
 20
-0.022014053659159948
 10
0.024716255306108603
 20
-0.02273112618543851
 10
0.027226437043166463
 20
-0.023428328635523035
 10
0.02985444386366226
 20
-0.024107927392356527
 10
0.03259962081320089
 20
-0.02477187031959958
 10
0.03546128373613472
 20
-0.02542178479993354
 10
0.03843871944606969
 20
-0.02605898049183256
 10
0.041531185903605716
 20
-0.02668445652465221
 10
0.0447379124012689
 20
-0.027298912797495092
 10
0.04805809975558828
 20
-0.02790276499973015
 10
0.051490920506268245
 20
-0.02849616293083606
 10
0.05503551912240989
 20
-0.029079011664842086
 10
0.058691012215726535
 20
-0.029650995080356367
 10
0.0624564887607032
 20
-0.030211601261171867
 10
0.06633101032164274
 20
-0.030760149264754805
 10
0.07031361128654401
 20
-0.03129581675644651
 10
0.07440329910775273
 20
-0.031817668015717025
 10
0.07859905454932481
 20
-0.0323246818369398
 10
0.08289983194104128
 20
-0.032815778870438406
 10
0.08730455943901189
 20
-0.03328984797941226
 10
0.09181213929280047
 20
-0.03374577122410366
 10
0.09642144811900738
 20
-0.03418244712546916
 10
0.10113133718124034
 20
-0.03459881190584217
 10
0.10594063267640386
 20
-0.03499385845274508
 10
0.11084813602723514
 20
-0.03536665280321573
 10
0.11585262418101466
 20
-0.03571634799882191
 10
0.12095284991437733
 20
-0.03604219521500919
 10
0.12614754214414542
 20
-0.036343552121633364
 10
0.1314354062441106
 20
-0.03661988848357274
 10
0.13681512436768029
 20
-0.036870789060326356
 10
0.1422853557763144
 20
-0.03709595391069069
 10
0.14784473717366403
 20
-0.03729519625221718
 10
0.15349188304533412
 20
-0.0374684380645389
 10
0.15922538600418318
 20
-0.037615703660238524
 10
0.16504381714107252
 20
-0.03773711147624171
 10
0.1709457263809812
 20
-0.03783286436238646
 10
0.17692964284439522
 20
-0.03790323866158328
 10
0.18299407521388067
 20
-0.0379485723876768
 10
0.18913751210575247
 20
-0.037969252812721364
 10
0.19535842244674162
 20
-0.03796570377493785
 10
0.20165525585557204
 20
-0.03793837301231617
 10
0.20802644302934697
 20
-0.03788771981492413
 10
0.21447039613465263
 20
-0.037814203271856694
 10
0.22098550920327997
 20
-0.03771827136685217
 10
0.22757015853246493
 20
-0.0376003511504491
 10
0.23422270308954934
 20
-0.037460840186742825
 10
0.24094148492096124
 20
-0.037300099439979126
 10
0.2477248295654113
 20
-0.037118447731070266
 10
0.2545710464712032
 20
-0.03691615785735781
 10
0.26147842941755517
 20
-0.03669345443129844
 10
0.2684452569398261
 20
-0.03645051345594612
 10
0.2754697927585401
 20
-0.036187463617860904
 10
0.28255028621210354
 20
-0.0359043892420808
 10
0.289684972693108
 20
-0.03560133481970591
 10
0.29687207408810556
 20
-0.0352783109870657
 10
0.3041097992207535
 20
-0.03493530180691813
 10
0.31139634429821206
 20
-0.034572273177144175
 10
0.3187298933606878
 20
-0.03418918217135517
 10
0.3261086187340088
 20
-0.03378598709904885
 10
0.33353068148511955
 20
-0.033362658060665934
 10
0.3409942318803809
 20
-0.03291918776526808
 10
0.3484974098465637
 20
-0.03245560237563155
 10
0.3560383454344168
 20
-0.031971972147304475
 10
0.36361515928469845
 20
-0.03146842163448824
 10
0.37122596309655176
 20
-0.030945139246274733
 10
0.3788688600981085
 20
-0.03040238595152247
 10
0.38654194551920495
 20
-0.029840502949131376
 10
0.3942433070660905
 20
-0.029259918142265206
 10
0.401971025398011
 20
-0.02866115127969765
 10
0.4097231746055489
 20
-0.028044817654408548
 10
0.41749782269060043
 20
-0.027411630278273265
 10
0.4252930320478696
 20
-0.02676240048159843
 10
0.4331068599477605
 20
-0.026098036916765995
 10
0.44093735902054604
 20
-0.025419542975763845
 10
0.44878257774169333
 20
-0.024728012661320062
 10
0.4566405609182247
 20
-0.024024624980157366
 10
0.4645093501759921
 20
-0.023310636954006796
 10
0.47238698444774596
 20
-0.022587375368975333
 10
0.48027150046187367
 20
-0.021856227406202855
 10
0.488160933231688
 20
-0.02111863031608038
 10
0.49605331654514345
 20
-0.02037606031431078
 10
0.5039466834548567
 20
-0.01963002089051086
 10
0.511839066768312
 20
-0.01888203072870053
 10
0.5197284995381264
 20
-0.018133611443783157
 10
0.527613015552254
 20
-0.0173862753389584
 10
0.5354906498240081
 20
-0.01664151338596244
 10
0.5433594390817755
 20
-0.01590078362321467
 10
0.5512174222583067
 20
-0.01516550015654464
 10
0.559062640979454
 20
-0.014437022933432296
 10
0.5668931400522396
 20
-0.013716648444921731
 10
0.5747069679521305
 20
-0.0130056014899322
 10
0.5825021773093997
 20
-0.012305028114995717
 10
0.5902768253944511
 20
-0.01161598981894646
 10
0.5980289746019891
 20
-0.010939459087248436
 10
0.6057566929339095
 20
-0.01027631629497009
 10
0.613458054480795
 20
-0.009627347991399887
 10
0.6211311399018917
 20
-0.0089932465534527
 10
0.6287740369034485
 20
-0.008374611169834203
 10
0.6363848407153017
 20
-0.007771950093885889
 10
0.6439616545655833
 20
-0.007185684080574763
 10
0.6515025901534364
 20
-0.0066161509026273855
 10
0.6590057681196191
 20
-0.006063610822706998
 10
0.6664693185148807
 20
-0.005528252883110634
 10
0.6738913812659912
 20
-0.005010201861981574
 10
0.6812701066393123
 20
-0.00450952573569155
 10
0.688603655701788
 20
-0.004026243480985854
 10
0.6958902007792466
 20
-0.003560333047772966
 10
0.7031279259118945
 20
-0.0031117393340873633
 10
0.7103150273068921
 20
-0.0026803819986995015
 10
0.7174497137878966
 20
-0.002266162953969064
 10
0.7245302072414602
 20
-0.0018689733916545787
 10
0.7315547430601739
 20
-0.0014887002072648215
 10
0.7385215705824448
 20
-0.0011252317038770165
 10
0.7454289535287968
 20
-0.0007784624738191689
 10
0.7522751704345887
 20
-0.00044829737584652616
 10
0.7590585150790388
 20
-0.00013465454603502698
 10
0.7657772969104507
 20
0.00016253259785817872
 10
0.7724298414675352
 20
0.00044331437679151616
 10
0.77901449079672
 20
0.0007077248917361029
 10
0.7855296038653474
 20
0.000955783060318469
 10
0.7919735569706532
 20
0.001187494602364496
 10
0.798344744144428
 20
0.0014028549082265027
 10
0.8046415775532585
 20
0.0016018527056931304
 10
0.8108624878942476
 20
0.0017844744251347413
 10
0.8170059247861194
 20
0.0019507091486252238
 10
0.8230703571556051
 20
0.0021005540173578813
 10
0.8290542736190188
 20
0.002234019962940856
 10
0.8349561828589277
 20
0.0023511376222623737
 10
0.8407746139958169
 20
0.002451963292647531
 10
0.846508116954666
 20
0.0025365847840170368
 10
0.852155262826336
 20
0.002605127027675166
 10
0.8577146442236856
 20
0.0026577573071141104
 10
0.8631848756323197
 20
0.0026946899846820114
 10
0.8685645937558895
 20
0.00271619060892942
 10
0.8738524578558546
 20
0.002722579300680539
 10
0.8790471500856227
 20
0.0027142333310871025
 10
0.8841473758189854
 20
0.0026915888217917826
 10
0.8891518639727651
 20
0.00265514151550235
 10
0.8940593673235961
 20
0.0026054465843819196
 10
0.8988686628187597
 20
0.0025431174633036248
 10
0.9035785518809927
 20
0.002468823714801026
 10
0.9081878607071996
 20
0.002383287952070021
 10
0.9126954405609882
 20
0.002287281865253583
 10
0.9171001680589588
 20
0.0021816214140924425
 10
0.9214009454506753
 20
0.0020671612665013606
 10
0.9255967008922472
 20
0.0019447885774100658
 10
0.929686388713456
 20
0.0018154162150043772
 10
0.9336689896783574
 20
0.0016799755520726207
 10
0.9375435112392969
 20
0.0015394089483064155
 10
0.9413089877842735
 20
0.0013946620549753937
 10
0.9449644808775901
 20
0.0012466760762959153
 10
0.9485090794937318
 20
0.00109638012200219
 10
0.9519419002444118
 20
0.0009446837831172842
 10
0.9552620875987311
 20
0.0007924700577768963
 10
0.9584688140963944
 20
0.0006405887463000008
 10
0.9615612805539304
 20
0.0004898504246954318
 10
0.9645387162638652
 20
0.00034102109365689035
 10
0.9674003791867991
 20
0.00019481758608717097
 10
0.9701455561363378
 20
5.190380059809941e-05
 10
0.9727735629568336
 20
-8.711218842162486e-05
 10
0.9752837446938913
 20
-0.00022168011134537783
 10
0.9776754757575974
 20
-0.0003513085599456458
 10
0.9799481600784286
 20
-0.00047556512411315124
 10
0.9821012312558058
 20
-0.0005940756309367597
 10
0.9841341526992536
 20
-0.0007065225261487653
 10
0.9860464177621284
 20
-0.0008126424547417382
 10
0.9878375498678869
 20
-0.0009122231131033359
 10
0.9895071026288573
 20
-0.0010050994589833693
 10
0.9910546599574902
 20
-0.0010911493777270977
 10
0.9924798361700553
 20
-0.0011702889132389226
 10
0.9937822760827619
 20
-0.001242467179886501
 10
0.9949616551002786
 20
-0.0013076610768659941
 10
0.9960176792966289
 20
-0.0013658699293243252
 10
0.9969500854884439
 20
-0.0014171101807254102
 10
0.997758641300553
 20
-0.0014614102585573435
 10
0.9984431452238967
 20
-0.0014988057305617697
 10
0.9990034266657467
 20
-0.001529334861331905
 10
0.9994393459922217
 20
-0.0015530346695263814
 10
0.9997507945630869
 20
-0.001569937574283453
 10
0.9999376947588287
 20
-0.001580068705935516
 10
1.0
 20
-0.001583443941096751
  0
ENDSEC
  0
SECTION
  2
OBJECTS
  0
DICTIONARY
  5
A
330
0
100
AcDbDictionary
281
1
  3
ACAD_COLOR
350
B
  3
ACAD_GROUP
350
C
  3
ACAD_LAYOUT
350
D
  3
ACAD_MATERIAL
350
E
  3
ACAD_MLEADERSTYLE
350
F
  3
ACAD_MLINESTYLE
350
10
  3
ACAD_PLOTSETTINGS
350
11
  3
ACAD_PLOTSTYLENAME
350
12
  3
ACAD_SCALELIST
350
14
  3
ACAD_TABLESTYLE
350
15
  3
ACAD_VISUALSTYLE
350
16
  3
EZDXF_META
350
2D
  0
DICTIONARY
  5
B
330
A
100
AcDbDictionary
281
1
  0
DICTIONARY
  5
C
330
A
100
AcDbDictionary
281
1
  0
DICTIONARY
  5
D
330
A
100
AcDbDictionary
281
1
  3
Model
350
1A
  3
Layout1
350
1E
  0
DICTIONARY
  5
E
330
A
100
AcDbDictionary
281
1
  3
ByBlock
350
1F
  3
ByLayer
350
20
  3
Global
350
21
  0
DICTIONARY
  5
F
330
A
100
AcDbDictionary
281
1
  3
Standard
350
2C
  0
DICTIONARY
  5
10
330
A
100
AcDbDictionary
281
1
  3
Standard
350
22
  0
DICTIONARY
  5
11
330
A
100
AcDbDictionary
281
1
  0
ACDBDICTIONARYWDFLT
  5
12
330
A
100
AcDbDictionary
281
1
  3
Normal
350
13
100
AcDbDictionaryWithDefault
340
13
  0
ACDBPLACEHOLDER
  5
13
330
12
  0
DICTIONARY
  5
14
330
A
100
AcDbDictionary
281
1
  0
DICTIONARY
  5
15
330
A
100
AcDbDictionary
281
1
  0
DICTIONARY
  5
16
330
A
100
AcDbDictionary
281
1
  0
LAYOUT
  5
1A
330
D
100
AcDbPlotSettings
  1

  4
A3
  6

 40
7.5
 41
20.0
 42
7.5
 43
20.0
 44
420.0
 45
297.0
 46
0.0
 47
0.0
 48
0.0
 49
0.0
140
0.0
141
0.0
142
1.0
143
1.0
 70
1024
 72
1
 73
0
 74
5
  7

 75
16
 76
0
 77
2
 78
300
147
1.0
148
0.0
149
0.0
100
AcDbLayout
  1
Model
 70
1
 71
0
 10
0.0
 20
0.0
 11
420.0
 21
297.0
 12
0.0
 22
0.0
 32
0.0
 14
1e+20
 24
1e+20
 34
1e+20
 15
-1e+20
 25
-1e+20
 35
-1e+20
146
0.0
 13
0.0
 23
0.0
 33
0.0
 16
1.0
 26
0.0
 36
0.0
 17
0.0
 27
1.0
 37
0.0
 76
1
330
17
  0
LAYOUT
  5
1E
330
D
100
AcDbPlotSettings
  1

  4
A3
  6

 40
7.5
 41
20.0
 42
7.5
 43
20.0
 44
420.0
 45
297.0
 46
0.0
 47
0.0
 48
0.0
 49
0.0
140
0.0
141
0.0
142
1.0
143
1.0
 70
0
 72
1
 73
0
 74
5
  7

 75
16
 76
0
 77
2
 78
300
147
1.0
148
0.0
149
0.0
100
AcDbLayout
  1
Layout1
 70
1
 71
1
 10
0.0
 20
0.0
 11
420.0
 21
297.0
 12
0.0
 22
0.0
 32
0.0
 14
1e+20
 24
1e+20
 34
1e+20
 15
-1e+20
 25
-1e+20
 35
-1e+20
146
0.0
 13
0.0
 23
0.0
 33
0.0
 16
1.0
 26
0.0
 36
0.0
 17
0.0
 27
1.0
 37
0.0
 76
1
330
1B
  0
MATERIAL
  5
1F
102
{ACAD_REACTORS
330
E
102
}
330
E
100
AcDbMaterial
  1
ByBlock
  2

 70
0
 40
1.0
 71
1
 41
1.0
 91
-1023410177
 42
1.0
 72
1
  3

 73
1
 74
1
 75
1
 44
0.5
 73
0
 45
1.0
 46
1.0
 77
1
  4

 78
1
 79
1
170
1
 48
1.0
171
1
  6

172
1
173
1
174
1
140
1.0
141
1.0
175
1
  7

176
1
177
1
178
1
143
1.0
179
1
  8

270
1
271
1
272
1
145
1.0
146
1.0
273
1
  9

274
1
275
1
276
1
 42
1.0
 72
1
  3

 73
1
 74
1
 75
1
 94
63
  0
MATERIAL
  5
20
102
{ACAD_REACTORS
330
E
102
}
330
E
100
AcDbMaterial
  1
ByLayer
  2

 70
0
 40
1.0
 71
1
 41
1.0
 91
-1023410177
 42
1.0
 72
1
  3

 73
1
 74
1
 75
1
 44
0.5
 73
0
 45
1.0
 46
1.0
 77
1
  4

 78
1
 79
1
170
1
 48
1.0
171
1
  6

172
1
173
1
174
1
140
1.0
141
1.0
175
1
  7

176
1
177
1
178
1
143
1.0
179
1
  8

270
1
271
1
272
1
145
1.0
146
1.0
273
1
  9

274
1
275
1
276
1
 42
1.0
 72
1
  3

 73
1
 74
1
 75
1
 94
63
  0
MATERIAL
  5
21
102
{ACAD_REACTORS
330
E
102
}
330
E
100
AcDbMaterial
  1
Global
  2

 70
0
 40
1.0
 71
1
 41
1.0
 91
-1023410177
 42
1.0
 72
1
  3

 73
1
 74
1
 75
1
 44
0.5
 73
0
 45
1.0
 46
1.0
 77
1
  4

 78
1
 79
1
170
1
 48
1.0
171
1
  6

172
1
173
1
174
1
140
1.0
141
1.0
175
1
  7

176
1
177
1
178
1
143
1.0
179
1
  8

270
1
271
1
272
1
145
1.0
146
1.0
273
1
  9

274
1
275
1
276
1
 42
1.0
 72
1
  3

 73
1
 74
1
 75
1
 94
63
  0
MLINESTYLE
  5
22
102
{ACAD_REACTORS
330
10
102
}
330
10
100
AcDbMlineStyle
  2
Standard
 70
0
  3

 62
256
 51
90.0
 52
90.0
 71
2
 49
0.5
 62
256
  6
BYLAYER
 49
-0.5
 62
256
  6
BYLAYER
  0
MLEADERSTYLE
  5
2C
102
{ACAD_REACTORS
330
F
102
}
330
F
100
AcDbMLeaderStyle
179
2
170
2
171
1
172
0
 90
2
 40
0.0
 41
0.0
173
1
 91
-1056964608
 92
-2
290
1
 42
2.0
291
1
 43
8.0
  3
Standard
 44
4.0
300

342
29
174
1
175
1
176
0
178
1
 93
-1056964608
 45
4.0
292
0
297
0
 46
4.0
 94
-1056964608
 47
1.0
 49
1.0
140
1.0
294
1
141
0.0
177
0
142
1.0
295
0
296
0
143
3.75
271
0
272
9
273
9
  0
DICTIONARY
  5
2D
330
A
100
AcDbDictionary
280
1
281
1
  3
CREATED_BY_EZDXF
350
2E
  3
WRITTEN_BY_EZDXF
350
32
  0
DICTIONARYVAR
  5
2E
330
2D
100
DictionaryVariables
280
0
  1
1.4.3 @ 2026-04-01T14:56:28.333423+00:00
  0
DICTIONARYVAR
  5
32
330
2D
100
DictionaryVariables
280
0
  1
1.4.3 @ 2026-04-01T14:56:28.336466+00:00
  0
ENDSEC
  0
EOF
