  0
SECTION
  2
HEADER
  9
$ACADVER
  1
AC1027
  9
$ACADMAINTVER
 70
105
  9
$DWGCODEPAGE
  3
ANSI_1252
  9
$LASTSAVEDBY
  1
ezdxf
  9
$REQUIREDVERSIONS
160
0
  9
$INSBASE
 10
0.0
 20
0.0
 30
0.0
  9
$EXTMIN
 10
1e+20
 20
1e+20
 30
1e+20
  9
$EXTMAX
 10
-1e+20
 20
-1e+20
 30
-1e+20
  9
$LIMMIN
 10
0.0
 20
0.0
  9
$LIMMAX
 10
420.0
 20
297.0
  9
$ORTHOMODE
 70
0
  9
$REGENMODE
 70
1
  9
$FILLMODE
 70
1
  9
$QTEXTMODE
 70
0
  9
$MIRRTEXT
 70
1
  9
$LTSCALE
 40
1.0
  9
$ATTMODE
 70
1
  9
$TEXTSIZE
 40
2.5
  9
$TRACEWID
 40
1.0
  9
$TEXTSTYLE
  7
Standard
  9
$CLAYER
  8
0
  9
$CELTYPE
  6
ByLayer
  9
$CECOLOR
 62
256
  9
$CELTSCALE
 40
1.0
  9
$DISPSILH
 70
0
  9
$DIMSCALE
 40
1.0
  9
$DIMASZ
 40
2.5
  9
$DIMEXO
 40
0.625
  9
$DIMDLI
 40
3.75
  9
$DIMRND
 40
0.0
  9
$DIMDLE
 40
0.0
  9
$DIMEXE
 40
1.25
  9
$DIMTP
 40
0.0
  9
$DIMTM
 40
0.0
  9
$DIMTXT
 40
2.5
  9
$DIMCEN
 40
2.5
  9
$DIMTSZ
 40
0.0
  9
$DIMTOL
 70
0
  9
$DIMLIM
 70
0
  9
$DIMTIH
 70
0
  9
$DIMTOH
 70
0
  9
$DIMSE1
 70
0
  9
$DIMSE2
 70
0
  9
$DIMTAD
 70
1
  9
$DIMZIN
 70
8
  9
$DIMBLK
  1

  9
$DIMASO
 70
1
  9
$DIMSHO
 70
1
  9
$DIMPOST
  1

  9
$DIMAPOST
  1

  9
$DIMALT
 70
0
  9
$DIMALTD
 70
3
  9
$DIMALTF
 40
0.03937007874
  9
$DIMLFAC
 40
1.0
  9
$DIMTOFL
 70
1
  9
$DIMTVP
 40
0.0
  9
$DIMTIX
 70
0
  9
$DIMSOXD
 70
0
  9
$DIMSAH
 70
0
  9
$DIMBLK1
  1

  9
$DIMBLK2
  1

  9
$DIMSTYLE
  2
ISO-25
  9
$DIMCLRD
 70
0
  9
$DIMCLRE
 70
0
  9
$DIMCLRT
 70
0
  9
$DIMTFAC
 40
1.0
  9
$DIMGAP
 40
0.625
  9
$DIMJUST
 70
0
  9
$DIMSD1
 70
0
  9
$DIMSD2
 70
0
  9
$DIMTOLJ
 70
0
  9
$DIMTZIN
 70
8
  9
$DIMALTZ
 70
0
  9
$DIMALTTZ
 70
0
  9
$DIMUPT
 70
0
  9
$DIMDEC
 70
2
  9
$DIMTDEC
 70
2
  9
$DIMALTU
 70
2
  9
$DIMALTTD
 70
3
  9
$DIMTXSTY
  7
Standard
  9
$DIMAUNIT
 70
0
  9
$DIMADEC
 70
0
  9
$DIMALTRND
 40
0.0
  9
$DIMAZIN
 70
0
  9
$DIMDSEP
 70
44
  9
$DIMATFIT
 70
3
  9
$DIMFRAC
 70
0
  9
$DIMLDRBLK
  1

  9
$DIMLUNIT
 70
2
  9
$DIMLWD
 70
-2
  9
$DIMLWE
 70
-2
  9
$DIMTMOVE
 70
0
  9
$DIMFXL
 40
1.0
  9
$DIMFXLON
 70
0
  9
$DIMJOGANG
 40
0.785398163397
  9
$DIMTFILL
 70
0
  9
$DIMTFILLCLR
 70
0
  9
$DIMARCSYM
 70
0
  9
$DIMLTYPE
  6

  9
$DIMLTEX1
  6

  9
$DIMLTEX2
  6

  9
$DIMTXTDIRECTION
 70
0
  9
$LUNITS
 70
2
  9
$LUPREC
 70
4
  9
$SKETCHINC
 40
1.0
  9
$FILLETRAD
 40
10.0
  9
$AUNITS
 70
0
  9
$AUPREC
 70
2
  9
$MENU
  1
.
  9
$ELEVATION
 40
0.0
  9
$PELEVATION
 40
0.0
  9
$THICKNESS
 40
0.0
  9
$LIMCHECK
 70
0
  9
$CHAMFERA
 40
0.0
  9
$CHAMFERB
 40
0.0
  9
$CHAMFERC
 40
0.0
  9
$CHAMFERD
 40
0.0
  9
$SKPOLY
 70
0
  9
$TDCREATE
 40
2461132.7058796296
  9
$TDUCREATE
 40
2458532.153996898
  9
$TDUPDATE
 40
2461132.7058796296
  9
$TDUUPDATE
 40
2458532.1544311
  9
$TDINDWG
 40
0.0
  9
$TDUSRTIMER
 40
0.0
  9
$USRTIMER
 70
1
  9
$ANGBASE
 50
0.0
  9
$ANGDIR
 70
0
  9
$PDMODE
 70
0
  9
$PDSIZE
 40
0.0
  9
$PLINEWID
 40
0.0
  9
$SPLFRAME
 70
0
  9
$SPLINETYPE
 70
6
  9
$SPLINESEGS
 70
8
  9
$HANDSEED
  5
33
  9
$SURFTAB1
 70
6
  9
$SURFTAB2
 70
6
  9
$SURFTYPE
 70
6
  9
$SURFU
 70
6
  9
$SURFV
 70
6
  9
$UCSBASE
  2

  9
$UCSNAME
  2

  9
$UCSORG
 10
0.0
 20
0.0
 30
0.0
  9
$UCSXDIR
 10
1.0
 20
0.0
 30
0.0
  9
$UCSYDIR
 10
0.0
 20
1.0
 30
0.0
  9
$UCSORTHOREF
  2

  9
$UCSORTHOVIEW
 70
0
  9
$UCSORGTOP
 10
0.0
 20
0.0
 30
0.0
  9
$UCSORGBOTTOM
 10
0.0
 20
0.0
 30
0.0
  9
$UCSORGLEFT
 10
0.0
 20
0.0
 30
0.0
  9
$UCSORGRIGHT
 10
0.0
 20
0.0
 30
0.0
  9
$UCSORGFRONT
 10
0.0
 20
0.0
 30
0.0
  9
$UCSORGBACK
 10
0.0
 20
0.0
 30
0.0
  9
$PUCSBASE
  2

  9
$PUCSNAME
  2

  9
$PUCSORG
 10
0.0
 20
0.0
 30
0.0
  9
$PUCSXDIR
 10
1.0
 20
0.0
 30
0.0
  9
$PUCSYDIR
 10
0.0
 20
1.0
 30
0.0
  9
$PUCSORTHOREF
  2

  9
$PUCSORTHOVIEW
 70
0
  9
$PUCSORGTOP
 10
0.0
 20
0.0
 30
0.0
  9
$PUCSORGBOTTOM
 10
0.0
 20
0.0
 30
0.0
  9
$PUCSORGLEFT
 10
0.0
 20
0.0
 30
0.0
  9
$PUCSORGRIGHT
 10
0.0
 20
0.0
 30
0.0
  9
$PUCSORGFRONT
 10
0.0
 20
0.0
 30
0.0
  9
$PUCSORGBACK
 10
0.0
 20
0.0
 30
0.0
  9
$USERI1
 70
0
  9
$USERI2
 70
0
  9
$USERI3
 70
0
  9
$USERI4
 70
0
  9
$USERI5
 70
0
  9
$USERR1
 40
0.0
  9
$USERR2
 40
0.0
  9
$USERR3
 40
0.0
  9
$USERR4
 40
0.0
  9
$USERR5
 40
0.0
  9
$WORLDVIEW
 70
1
  9
$SHADEDGE
 70
3
  9
$SHADEDIF
 70
70
  9
$TILEMODE
 70
1
  9
$MAXACTVP
 70
64
  9
$PINSBASE
 10
0.0
 20
0.0
 30
0.0
  9
$PLIMCHECK
 70
0
  9
$PEXTMIN
 10
1e+20
 20
1e+20
 30
1e+20
  9
$PEXTMAX
 10
-1e+20
 20
-1e+20
 30
-1e+20
  9
$PLIMMIN
 10
0.0
 20
0.0
  9
$PLIMMAX
 10
420.0
 20
297.0
  9
$UNITMODE
 70
0
  9
$VISRETAIN
 70
1
  9
$PLINEGEN
 70
0
  9
$PSLTSCALE
 70
1
  9
$TREEDEPTH
 70
3020
  9
$CMLSTYLE
  2
Standard
  9
$CMLJUST
 70
0
  9
$CMLSCALE
 40
20.0
  9
$PROXYGRAPHICS
 70
1
  9
$MEASUREMENT
 70
1
  9
$CELWEIGHT
370
-1
  9
$ENDCAPS
280
0
  9
$JOINSTYLE
280
0
  9
$LWDISPLAY
290
0
  9
$INSUNITS
 70
6
  9
$HYPERLINKBASE
  1

  9
$STYLESHEET
  1

  9
$XEDIT
290
1
  9
$CEPSNTYPE
380
0
  9
$PSTYLEMODE
290
1
  9
$FINGERPRINTGUID
  2
{70BF4DEE-0EBD-4BC0-851B-805DB0FB312D}
  9
$VERSIONGUID
  2
{D9224822-1F56-4AA0-8195-58B740B3358A}
  9
$EXTNAMES
290
1
  9
$PSVPSCALE
 40
0.0
  9
$OLESTARTUP
290
0
  9
$SORTENTS
280
127
  9
$INDEXCTL
280
0
  9
$HIDETEXT
280
1
  9
$XCLIPFRAME
280
1
  9
$HALOGAP
280
0
  9
$OBSCOLOR
 70
257
  9
$OBSLTYPE
280
0
  9
$INTERSECTIONDISPLAY
280
0
  9
$INTERSECTIONCOLOR
 70
257
  9
$DIMASSOC
280
2
  9
$PROJECTNAME
  1

  9
$CAMERADISPLAY
290
0
  9
$LENSLENGTH
 40
50.0
  9
$CAMERAHEIGHT
 40
0.0
  9
$STEPSPERSEC
 40
24.0
  9
$STEPSIZE
 40
100.0
  9
$3DDWFPREC
 40
2.0
  9
$PSOLWIDTH
 40
0.005
  9
$PSOLHEIGHT
 40
0.08
  9
$LOFTANG1
 40
1.570796326795
  9
$LOFTANG2
 40
1.570796326795
  9
$LOFTMAG1
 40
0.0
  9
$LOFTMAG2
 40
0.0
  9
$LOFTPARAM
 70
7
  9
$LOFTNORMALS
280
1
  9
$LATITUDE
 40
37.795
  9
$LONGITUDE
 40
-122.394
  9
$NORTHDIRECTION
 40
0.0
  9
$TIMEZONE
 70
-8000
  9
$LIGHTGLYPHDISPLAY
280
1
  9
$TILEMODELIGHTSYNCH
280
1
  9
$CMATERIAL
347
20
  9
$SOLIDHIST
280
0
  9
$SHOWHIST
280
1
  9
$DWFFRAME
280
2
  9
$DGNFRAME
280
2
  9
$REALWORLDSCALE
290
1
  9
$INTERFERECOLOR
 62
256
  9
$CSHADOW
280
0
  9
$SHADOWPLANELOCATION
 40
0.0
  0
ENDSEC
  0
SECTION
  2
CLASSES
  0
CLASS
  1
ACDBDICTIONARYWDFLT
  2
AcDbDictionaryWithDefault
  3
ObjectDBX Classes
 90
0
 91
0
280
0
281
0
  0
CLASS
  1
SUN
  2
AcDbSun
  3
SCENEOE
 90
1153
 91
0
280
0
281
0
  0
CLASS
  1
VISUALSTYLE
  2
AcDbVisualStyle
  3
ObjectDBX Classes
 90
4095
 91
0
280
0
281
0
  0
CLASS
  1
MATERIAL
  2
AcDbMaterial
  3
ObjectDBX Classes
 90
1153
 91
0
280
0
281
0
  0
CLASS
  1
SCALE
  2
AcDbScale
  3
ObjectDBX Classes
 90
1153
 91
0
280
0
281
0
  0
CLASS
  1
TABLESTYLE
  2
AcDbTableStyle
  3
ObjectDBX Classes
 90
4095
 91
0
280
0
281
0
  0
CLASS
  1
MLEADERSTYLE
  2
AcDbMLeaderStyle
  3
ACDB_MLEADERSTYLE_CLASS
 90
4095
 91
0
280
0
281
0
  0
CLASS
  1
DICTIONARYVAR
  2
AcDbDictionaryVar
  3
ObjectDBX Classes
 90
0
 91
0
280
0
281
0
  0
CLASS
  1
CELLSTYLEMAP
  2
AcDbCellStyleMap
  3
ObjectDBX Classes
 90
1152
 91
0
280
0
281
0
  0
CLASS
  1
MENTALRAYRENDERSETTINGS
  2
AcDbMentalRayRenderSettings
  3
SCENEOE
 90
1024
 91
0
280
0
281
0
  0
CLASS
  1
ACDBDETAILVIEWSTYLE
  2
AcDbDetailViewStyle
  3
ObjectDBX Classes
 90
1025
 91
0
280
0
281
0
  0
CLASS
  1
ACDBSECTIONVIEWSTYLE
  2
AcDbSectionViewStyle
  3
ObjectDBX Classes
 90
1025
 91
0
280
0
281
0
  0
CLASS
  1
RASTERVARIABLES
  2
AcDbRasterVariables
  3
ISM
 90
0
 91
0
280
0
281
0
  0
CLASS
  1
ACDBPLACEHOLDER
  2
AcDbPlaceHolder
  3
ObjectDBX Classes
 90
0
 91
0
280
0
281
0
  0
CLASS
  1
LAYOUT
  2
AcDbLayout
  3
ObjectDBX Classes
 90
0
 91
0
280
0
281
0
  0
ENDSEC
  0
SECTION
  2
TABLES
  0
TABLE
  2
VPORT
  5
8
330
0
100
AcDbSymbolTable
 70
1
  0
VPORT
  5
23
330
8
100
AcDbSymbolTableRecord
100
AcDbViewportTableRecord
  2
*Active
 70
0
 10
0.0
 20
0.0
 11
1.0
 21
1.0
 12
0.0
 22
0.0
 13
0.0
 23
0.0
 14
0.5
 24
0.5
 15
0.5
 25
0.5
 16
0.0
 26
0.0
 36
1.0
 17
0.0
 27
0.0
 37
0.0
 40
1000.0
 41
1.34
 42
50.0
 43
0.0
 44
0.0
 50
0.0
 51
0.0
 71
0
 72
1000
 73
1
 74
3
 75
0
 76
0
 77
0
 78
0
281
0
 65
0
146
0.0
  0
ENDTAB
  0
TABLE
  2
LTYPE
  5
2
330
0
100
AcDbSymbolTable
 70
3
  0
LTYPE
  5
24
330
2
100
AcDbSymbolTableRecord
100
AcDbLinetypeTableRecord
  2
ByBlock
 70
0
  3

 72
65
 73
0
 40
0.0
  0
LTYPE
  5
25
330
2
100
AcDbSymbolTableRecord
100
AcDbLinetypeTableRecord
  2
ByLayer
 70
0
  3

 72
65
 73
0
 40
0.0
  0
LTYPE
  5
26
330
2
100
AcDbSymbolTableRecord
100
AcDbLinetypeTableRecord
  2
Continuous
 70
0
  3

 72
65
 73
0
 40
0.0
  0
ENDTAB
  0
TABLE
  2
LAYER
  5
1
330
0
100
AcDbSymbolTable
 70
2
  0
LAYER
  5
27
330
1
100
AcDbSymbolTableRecord
100
AcDbLayerTableRecord
  2
0
 70
0
 62
7
  6
Continuous
370
-3
390
13
347
21
  0
LAYER
  5
28
330
1
100
AcDbSymbolTableRecord
100
AcDbLayerTableRecord
  2
Defpoints
 70
0
 62
7
  6
Continuous
290
0
370
-3
390
13
347
21
  0
ENDTAB
  0
TABLE
  2
STYLE
  5
5
330
0
100
AcDbSymbolTable
 70
1
  0
STYLE
  5
29
330
5
100
AcDbSymbolTableRecord
100
AcDbTextStyleTableRecord
  2
Standard
 70
0
 40
0.0
 41
1.0
 50
0.0
 71
0
 42
2.5
  3
txt
  4

  0
ENDTAB
  0
TABLE
  2
VIEW
  5
7
330
0
100
AcDbSymbolTable
 70
0
  0
ENDTAB
  0
TABLE
  2
UCS
  5
6
330
0
100
AcDbSymbolTable
 70
0
  0
ENDTAB
  0
TABLE
  2
APPID
  5
3
330
0
100
AcDbSymbolTable
 70
3
  0
APPID
  5
2A
330
3
100
AcDbSymbolTableRecord
100
AcDbRegAppTableRecord
  2
ACAD
 70
0
  0
APPID
  5
30
330
3
100
AcDbSymbolTableRecord
100
AcDbRegAppTableRecord
  2
HATCHBACKGROUNDCOLOR
 70
0
  0
APPID
  5
31
330
3
100
AcDbSymbolTableRecord
100
AcDbRegAppTableRecord
  2
EZDXF
 70
0
  0
ENDTAB
  0
TABLE
  2
DIMSTYLE
  5
4
330
0
100
AcDbSymbolTable
 70
1
100
AcDbDimStyleTable
  0
DIMSTYLE
105
2B
330
4
100
AcDbSymbolTableRecord
100
AcDbDimStyleTableRecord
  2
Standard
 70
0
 40
1.0
 41
2.5
 42
0.625
 43
3.75
 44
1.25
 45
0.0
 46
0.0
 47
0.0
 48
0.0
 49
2.5
140
2.5
141
2.5
142
0.0
143
0.03937007874
144
1.0
145
0.0
146
1.0
147
0.625
148
0.0
 69
0
 70
0
 71
0
 72
0
 73
0
 74
0
 75
0
 76
0
 77
1
 78
8
 79
3
170
0
171
3
172
1
173
0
174
0
175
0
176
0
177
0
178
0
179
2
271
2
272
2
273
2
274
3
275
0
276
0
277
2
278
44
279
0
280
0
281
0
282
0
283
0
284
8
285
0
286
0
288
0
289
3
290
0
371
-2
372
-2
  0
ENDTAB
  0
TABLE
  2
BLOCK_RECORD
  5
9
330
0
100
AcDbSymbolTable
 70
2
  0
BLOCK_RECORD
  5
17
330
9
100
AcDbSymbolTableRecord
100
AcDbBlockTableRecord
  2
*Model_Space
340
1A
 70
0
280
1
281
0
  0
BLOCK_RECORD
  5
1B
330
9
100
AcDbSymbolTableRecord
100
AcDbBlockTableRecord
  2
*Paper_Space
340
1E
 70
0
280
1
281
0
  0
ENDTAB
  0
ENDSEC
  0
SECTION
  2
BLOCKS
  0
BLOCK
  5
18
330
17
100
AcDbEntity
  8
0
100
AcDbBlockBegin
  2
*Model_Space
 70
0
 10
0.0
 20
0.0
 30
0.0
  3
*Model_Space
  1

  0
ENDBLK
  5
19
330
17
100
AcDbEntity
  8
0
100
AcDbBlockEnd
  0
BLOCK
  5
1C
330
1B
100
AcDbEntity
  8
0
100
AcDbBlockBegin
  2
*Paper_Space
 70
0
 10
0.0
 20
0.0
 30
0.0
  3
*Paper_Space
  1

  0
ENDBLK
  5
1D
330
1B
100
AcDbEntity
  8
0
100
AcDbBlockEnd
  0
ENDSEC
  0
SECTION
  2
ENTITIES
  0
LWPOLYLINE
  5
2F
330
17
100
AcDbEntity
  8
0
100
AcDbPolyline
 90
399
 70
1
 10
1.0
 20
0.0016573252892768601
 10
0.9999376947588287
 20
0.0016621498457571589
 10
0.9997507945630869
 20
0.0016767070823814224
 10
0.9994393459922217
 20
0.001701247023644544
 10
0.9990034266657467
 20
0.0017361841253210107
 10
0.9984431452238967
 20
0.0017820939148215922
 10
0.9977586413005529
 20
0.0018397083234268712
 10
0.9969500854884439
 20
0.001909909745829865
 10
0.9960176792966289
 20
0.001993723872112829
 10
0.9949616551002786
 20
0.0020923113466555557
 10
0.9937822760827619
 20
0.0022069583174563613
 10
0.9924798361700553
 20
0.00233906594787424
 10
0.9910546599574902
 20
0.002490138970807557
 10
0.9895071026288572
 20
0.0026617733727485647
 10
0.9878375498678869
 20
0.002855643301934017
 10
0.9860464177621284
 20
0.0030734873008945608
 10
0.9841341526992535
 20
0.00331709396903605
 10
0.9821012312558058
 20
0.003588287165417945
 10
0.9799481600784284
 20
0.003888910865581079
 10
0.9776754757575974
 20
0.004220813789084161
 10
0.9752837446938913
 20
0.004585833916301095
 10
0.9727735629568335
 20
0.004985783013982895
 10
0.9701455561363377
 20
0.0054224312890814065
 10
0.9674003791867991
 20
0.005897492289351661
 10
0.9645387162638652
 20
0.0064126081672945074
 10
0.9615612805539303
 20
0.006969335421071076
 10
0.9584688140963943
 20
0.007569131222130595
 10
0.9552620875987311
 20
0.008213340434461204
 10
0.9519419002444117
 20
0.008903183424630682
 10
0.9485090794937318
 20
0.009639744755167044
 10
0.9449644808775901
 20
0.010423962846387816
 10
0.9413089877842735
 20
0.011256620683573079
 10
0.9375435112392968
 20
0.012138337637461352
 10
0.9336689896783572
 20
0.01306956245649633
 10
0.929686388713456
 20
0.014050567479153191
 10
0.9255967008922472
 20
0.015081444104108235
 10
0.9214009454506752
 20
0.016162099545083707
 10
0.9171001680589588
 20
0.017292254886001574
 10
0.9126954405609882
 20
0.018471444440717428
 10
0.9081878607071996
 20
0.019699016410192775
 10
0.9035785518809927
 20
0.02097413481861085
 10
0.8988686628187597
 20
0.022295782698761132
 10
0.8940593673235961
 20
0.02366276648612591
 10
0.8891518639727649
 20
0.02507372157061204
 10
0.8841473758189853
 20
0.026527118944892493
 10
0.8790471500856227
 20
0.02802127287896288
 10
0.8738524578558546
 20
0.029554349541879365
 10
0.8685645937558895
 20
0.031124376483822682
 10
0.8631848756323197
 20
0.03272925288471405
 10
0.8577146442236856
 20
0.034366760469674885
 10
0.852155262826336
 20
0.036034574986734964
 10
0.8465081169546659
 20
0.03773027813841958
 10
0.8407746139958168
 20
0.03945136985622017
 10
0.8349561828589275
 20
0.041195280805513254
 10
0.8290542736190187
 20
0.04295938500825609
 10
0.8230703571556048
 20
0.04474101247175329
 10
0.8170059247861193
 20
0.0465374617139538
 10
0.8108624878942475
 20
0.04834601207906945
 10
0.8046415775532584
 20
0.05016393574176911
 10
0.798344744144428
 20
0.05198850930374093
 10
0.791973556970653
 20
0.05381702489295982
 10
0.7855296038653474
 20
0.05564680068347054
 10
0.77901449079672
 20
0.05747519076180341
 10
0.772429841467535
 20
0.05929959427517209
 10
0.7657772969104506
 20
0.06111746380625775
 10
0.7590585150790388
 20
0.06292631292952552
 10
0.7522751704345887
 20
0.06472372291452798
 10
0.7454289535287968
 20
0.06650734855238932
 10
0.7385215705824448
 20
0.06827492309249567
 10
0.7315547430601739
 20
0.07002426228719978
 10
0.7245302072414599
 20
0.07175326755294907
 10
0.7174497137878965
 20
0.07345992826652462
 10
0.710315027306892
 20
0.07514232322490415
 10
0.7031279259118944
 20
0.07679862130650741
 10
0.6958902007792465
 20
0.07842708138013504
 10
0.6886036557017879
 20
0.08002605151565502
 10
0.6812701066393122
 20
0.08159396755733737
 10
0.6738913812659912
 20
0.08312935112659514
 10
0.6664693185148804
 20
0.08463080712569376
 10
0.6590057681196191
 20
0.08609702081768437
 10
0.6515025901534364
 20
0.08752675456035955
 10
0.6439616545655832
 20
0.08891884427340208
 10
0.6363848407153015
 20
0.09027219571809143
 10
0.6287740369034482
 20
0.0915857806679619
 10
0.6211311399018915
 20
0.09285863304669537
 10
0.613458054480795
 20
0.09408984510633421
 10
0.6057566929339094
 20
0.09527856371466459
 10
0.598028974601989
 20
0.09642398681543608
 10
0.5902768253944511
 20
0.09752536011903255
 10
0.5825021773093996
 20
0.09858197407439624
 10
0.5747069679521304
 20
0.09959316116554877
 10
0.5668931400522395
 20
0.1005582935680676
 10
0.5590626409794539
 20
0.10147678119250306
 10
0.5512174222583066
 20
0.10234807013308564
 10
0.5433594390817753
 20
0.10317164153132746
 10
0.5354906498240078
 20
0.10394701085539604
 10
0.527613015552254
 20
0.10467372758758316
 10
0.5197284995381264
 20
0.10535137530393472
 10
0.511839066768312
 20
0.10597957212228881
 10
0.5039466834548565
 20
0.10655797148770967
 10
0.4960533165451433
 20
0.10708626325771907
 10
0.48816093323168797
 20
0.10756417504392417
 10
0.4802715004618736
 20
0.107991473761705
 10
0.4723869844477459
 20
0.1083679673356407
 10
0.46450935017599193
 20
0.10869350650537915
 10
0.4566405609182245
 20
0.10896798667473219
 10
0.4487825777416933
 20
0.10919134974594599
 10
0.440937359020546
 20
0.10936358588134809
 10
0.43310685994776044
 20
0.1094847351359155
 10
0.4252930320478695
 20
0.10955488890670805
 10
0.41749782269060026
 20
0.10957419114852529
 10
0.40972317460554886
 20
0.10954283930951532
 10
0.40197102539801094
 20
0.10946108494570982
 10
0.39424330706609045
 20
0.10932923397949615
 10
0.38654194551920495
 20
0.10914764657375194
 10
0.37886886009810833
 20
0.10891673660064786
 10
0.3712259630965516
 20
0.10863697069184816
 10
0.3636151592846984
 20
0.10830886686486217
 10
0.3560383454344167
 20
0.1079329927284911
 10
0.34849740984656363
 20
0.10750996327852871
 10
0.3409942318803809
 20
0.10704043830296427
 10
0.33353068148511933
 20
0.10652511942376293
 10
0.32610861873400876
 20
0.10596474680971989
 10
0.3187298933606877
 20
0.10536009560176694
 10
0.31139634429821195
 20
0.1047119720983322
 10
0.30410979922075343
 20
0.1040212097537964
 10
0.29687207408810545
 20
0.10328866504764977
 10
0.2896849726931079
 20
0.10251521328554886
 10
0.28255028621210343
 20
0.10170174439602282
 10
0.2754697927585398
 20
0.10084915878803241
 10
0.2684452569398261
 20
0.09995836333490077
 10
0.2614784294175551
 20
0.09903026754929756
 10
0.2545710464712032
 20
0.0980657800119606
 10
0.24772482956541125
 20
0.0970658051137066
 10
0.24094148492096118
 20
0.09603124016605127
 10
0.2342227030895493
 20
0.09496297293047931
 10
0.2275701585324647
 20
0.09386187961016393
 10
0.22098550920327992
 20
0.09272882334081195
 10
0.21447039613465257
 20
0.09156465320941408
 10
0.20802644302934675
 20
0.09037020382114169
 10
0.20165525585557204
 20
0.08914629542556508
 10
0.19535842244674156
 20
0.08789373460392985
 10
0.18913751210575241
 20
0.08661331550956923
 10
0.1829940752138806
 20
0.08530582164378861
 10
0.176929642844395
 20
0.083972028139918
 10
0.17094572638098116
 20
0.08261270451882463
 10
0.1650438171410723
 20
0.08122861787018087
 10
0.15922538600418312
 20
0.07982053640534018
 10
0.15349188304533407
 20
0.07838923331992868
 10
0.14784473717366398
 20
0.07693549089735074
 10
0.14228535577631435
 20
0.0754601047784525
 10
0.13681512436768023
 20
0.07396388831770155
 10
0.1314354062441105
 20
0.0724476769425147
 10
0.12614754214414542
 20
0.07091233242987525
 10
0.12095284991437727
 20
0.06935874701318673
 10
0.11585262418101461
 20
0.06778784723244843
 10
0.11084813602723492
 20
0.06620059744232337
 10
0.1059406326764038
 20
0.06459800289550849
 10
0.10113133718124029
 20
0.06298111232297363
 10
0.09642144811900738
 20
0.06135101993807425
 10
0.09181213929280041
 20
0.059708866798194794
 10
0.08730455943901183
 20
0.05805584146536349
 10
0.08289983194104122
 20
0.05639317991608452
 10
0.07859905454932464
 20
0.05472216466035866
 10
0.07440329910775273
 20
0.05304412304035447
 10
0.07031361128654401
 20
0.05136042469031708
 10
0.06633101032164263
 20
0.04967247815089993
 10
0.062456488760703144
 20
0.0479817266430068
 10
0.05869101221572648
 20
0.046289643018272104
 10
0.05503551912240989
 20
0.04459772391530893
 10
0.051490920506268245
 20
0.04290748316264128
 10
0.04805809975558817
 20
0.041220444480641334
 10
0.0447379124012689
 20
0.039538133545638496
 10
0.041531185903605605
 20
0.03786206948950201
 10
0.038438719446069636
 20
0.036193755917268644
 10
0.03546128373613472
 20
0.034534671533648795
 10
0.03259962081320089
 20
0.03288626047638391
 10
0.029854443863662206
 20
0.03124992246032461
 10
0.027226437043166407
 20
0.029627002840674606
 10
0.024716255306108603
 20
0.028018782707016136
 10
0.022324524242402555
 20
0.026426469121459482
 10
0.0200518399215715
 20
0.024851185614503803
 10
0.01789876874419416
 20
0.023293963050950616
 10
0.01586584730074636
 20
0.021755730975496945
 10
0.01395358223787152
 20
0.020237309543471645
 10
0.0121624501321132
 20
0.018739402136635316
 10
0.010492897371142729
 20
0.017262588757108253
 10
0.008945340042509797
 20
0.01580732028441652
 10
0.007520163829944748
 20
0.014373913671467562
 10
0.006217723917238127
 20
0.012962548145107658
 10
0.005038344899721436
 20
0.011573262465914919
 10
0.003982320703371123
 20
0.010205953290193612
 10
0.0030499145115561177
 20
0.0088603746649219
 10
0.002241358699447027
 20
0.007536138673828428
 10
0.0015568547761034002
 20
0.006232717240008375
 10
0.0009965733342532923
 20
0.004949445077706648
 10
0.0005606540077782163
 20
0.003685523773269347
 10
0.0002492054369130914
 20
0.0024400269629553306
 10
6.23052411713454e-05
 20
0.0012119065634840754
 10
0.0
 20
0.0
 10
6.23052411713454e-05
 20
-0.0008720042411774773
 10
0.0002492054369130914
 20
-0.0017292348151161819
 10
0.0005606540077782163
 20
-0.0025715407768991923
 10
0.0009965733342532923
 20
-0.003398854950672226
 10
0.0015568547761034002
 20
-0.004211186274984023
 10
0.0022413586994470824
 20
-0.005008611657141081
 10
0.0030499145115561177
 20
-0.005791267439937994
 10
0.003982320703371123
 20
-0.006559340586804012
 10
0.005038344899721436
 20
-0.007313059692830312
 10
0.006217723917238127
 20
-0.008052685929298175
 10
0.007520163829944748
 20
-0.00877850402821981
 10
0.008945340042509797
 20
-0.009490813411063167
 10
0.010492897371142784
 20
-0.010189919562293846
 10
0.0121624501321132
 20
-0.010876125743687038
 10
0.01395358223787152
 20
-0.011549725139609874
 10
0.015865847300746416
 20
-0.012210993516726354
 10
0.01789876874419416
 20
-0.012860182473931394
 10
0.020051839921571557
 20
-0.013497513349875527
 10
0.02232452424240261
 20
-0.01412317184631232
 10
0.024716255306108603
 20
-0.014737303415806301
 10
0.027226437043166463
 20
-0.015340009452204047
 10
0.02985444386366226
 20
-0.01593134431182782
 10
0.03259962081320089
 20
-0.01651131318272909
 10
0.03546128373613472
 20
-0.01707987080867481
 10
0.03843871944606969
 20
-0.017636921063962634
 10
0.041531185903605716
 20
-0.018182317364802233
 10
0.0447379124012689
 20
-0.018715863892987322
 10
0.04805809975558828
 20
-0.019237317598029748
 10
0.051490920506268245
 20
-0.019746390934952538
 10
0.05503551912240989
 20
-0.020242755286642215
 10
0.058691012215726535
 20
-0.02072604501213475
 10
0.0624564887607032
 20
-0.021195862055540627
 10
0.06633101032164274
 20
-0.02165178104456783
 10
0.07031361128654401
 20
-0.022093354802837875
 10
0.07440329910775273
 20
-0.02252012019645171
 10
0.07859905454932481
 20
-0.022931604232580033
 10
0.08289983194104128
 20
-0.023327330326241208
 10
0.08730455943901189
 20
-0.023706824650894267
 10
0.09181213929280047
 20
-0.02406962248899822
 10
0.09642144811900738
 20
-0.024415274500252028
 10
0.10113133718124034
 20
-0.024743352827789142
 10
0.10594063267640386
 20
-0.02505345696610919
 10
0.11084813602723514
 20
-0.025345219318923726
 10
0.11585262418101466
 20
-0.025618310380301476
 10
0.12095284991437733
 20
-0.025872443478439984
 10
0.12614754214414542
 20
-0.02610737902797355
 10
0.1314354062441106
 20
-0.026322928243861135
 10
0.13681512436768029
 20
-0.026518956277472642
 10
0.1422853557763144
 20
-0.02669538474341271
 10
0.14784473717366403
 20
-0.02685219361377097
 10
0.15349188304533412
 20
-0.026989422464766124
 10
0.15922538600418318
 20
-0.027107171069044863
 10
0.16504381714107252
 20
-0.02720559933510309
 10
0.1709457263809812
 20
-0.02728492660331311
 10
0.17692964284439522
 20
-0.02734543031576877
 10
0.18299407521388067
 20
-0.027387444084507856
 10
0.18913751210575247
 20
-0.02741135518955734
 10
0.19535842244674162
 20
-0.027417601544587503
 10
0.20165525585557204
 20
-0.02740666817369773
 10
0.20802644302934697
 20
-0.027379083247921904
 10
0.21447039613465263
 20
-0.027335413734393292
 10
0.22098550920327997
 20
-0.02727626071470552
 10
0.22757015853246493
 20
-0.027202254431824308
 10
0.23422270308954934
 20
-0.02711404912692265
 10
0.24094148492096124
 20
-0.027012317728730605
 10
0.2477248295654113
 20
-0.02689774645840945
 10
0.2545710464712032
 20
-0.02677102941259733
 10
0.26147842941755517
 20
-0.02663286318615286
 10
0.2684452569398261
 20
-0.02648394159427951
 10
0.2754697927585401
 20
-0.026324950551189157
 10
0.28255028621210354
 20
-0.026156563159307793
 10
0.289684972693108
 20
-0.025979435059297555
 10
0.29687207408810556
 20
-0.025794200086929692
 10
0.3041097992207535
 20
-0.025601466278158947
 10
0.31139634429821206
 20
-0.025401812258694718
 10
0.3187298933606878
 20
-0.02519578404900912
 10
0.3261086187340088
 20
-0.024983892310145007
 10
0.33353068148511955
 20
-0.02476661004996143
 10
0.3409942318803809
 20
-0.024544370803657397
 10
0.3484974098465637
 20
-0.02431756729661947
 10
0.3560383454344168
 20
-0.024086550591916975
 10
0.36361515928469845
 20
-0.0238516297191889
 10
0.37122596309655176
 20
-0.02361307177629013
 10
0.3788688600981085
 20
-0.023371102489955987
 10
0.38654194551920495
 20
-0.0231259072169503
 10
0.3942433070660905
 20
-0.022877632362736426
 10
0.401971025398011
 20
-0.02262638719069111
 10
0.4097231746055489
 20
-0.02237224599130339
 10
0.41749782269060043
 20
-0.02211525057769252
 10
0.4252930320478696
 20
-0.021855413071160564
 10
0.4331068599477605
 20
-0.02159271893838106
 10
0.44093735902054604
 20
-0.02132713024022065
 10
0.44878257774169333
 20
-0.021058589051096945
 10
0.4566405609182247
 20
-0.020787021007186567
 10
0.4645093501759921
 20
-0.02051233894169832
 10
0.47238698444774596
 20
-0.020234446565802193
 10
0.48027150046187367
 20
-0.019953242154629545
 10
0.488160933231688
 20
-0.019668622199006752
 10
0.49605331654514345
 20
-0.01938048498522212
 10
0.5039466834548567
 20
-0.019088734067116822
 10
0.511839066768312
 20
-0.01879328159709937
 10
0.5197284995381264
 20
-0.01849405148526665
 10
0.527613015552254
 20
-0.01819098235863296
 10
0.5354906498240081
 20
-0.01788403029547786
 10
0.5433594390817755
 20
-0.01757317131298169
 10
0.5512174222583067
 20
-0.0172584035895808
 10
0.559062640979454
 20
-0.01693974940680185
 10
0.5668931400522396
 20
-0.01661725679868478
 10
0.5747069679521305
 20
-0.016291000900238935
 10
0.5825021773093997
 20
-0.015961084989659938
 10
0.5902768253944511
 20
-0.015627641222231797
 10
0.5980289746019891
 20
-0.01529083105691958
 10
0.6057566929339095
 20
-0.014950845379593517
 10
0.613458054480795
 20
-0.014607904329592185
 10
0.6211311399018917
 20
-0.014262256838908832
 10
0.6287740369034485
 20
-0.013914179895653446
 10
0.6363848407153017
 20
-0.013563977545588886
 10
0.6439616545655833
 20
-0.0132119796474536
 10
0.6515025901534364
 20
-0.012858540399455842
 10
0.6590057681196191
 20
-0.012504036655753415
 10
0.6664693185148807
 20
-0.012148866052916141
 10
0.6738913812659912
 20
-0.011793444967307755
 10
0.6812701066393123
 20
-0.011438206325023969
 10
0.688603655701788
 20
-0.011083597286491517
 10
0.6958902007792466
 20
-0.010730076828076475
 10
0.7031279259118945
 20
-0.010378113243081548
 10
0.7103150273068921
 20
-0.01002818158434246
 10
0.7174497137878966
 20
-0.009680761070276817
 10
0.7245302072414602
 20
-0.009336332475710028
 10
0.7315547430601739
 20
-0.008995375528116533
 10
0.7385215705824448
 20
-0.00865836632908734
 10
0.7454289535287968
 20
-0.00832577481988239
 10
0.7522751704345887
 20
-0.007998062308864348
 10
0.7590585150790388
 20
-0.0076756790774562865
 10
0.7657772969104507
 20
-0.007359062080033362
 10
0.7724298414675352
 20
-0.007048632751864474
 10
0.77901449079672
 20
-0.006744794937878316
 10
0.7855296038653474
 20
-0.006447932953652279
 10
0.7919735569706532
 20
-0.006158409788626943
 10
0.798344744144428
 20
-0.00587656546014386
 10
0.8046415775532585
 20
-0.0056027155255029435
 10
0.8108624878942476
 20
-0.005337149757847534
 10
0.8170059247861194
 20
-0.00508013099031962
 10
0.8230703571556051
 20
-0.004831894131594358
 10
0.8290542736190188
 20
-0.004592645354608348
 10
0.8349561828589277
 20
-0.004362561459048229
 10
0.8407746139958169
 20
-0.004141789406970644
 10
0.846508116954666
 20
-0.003930446029786455
 10
0.852155262826336
 20
-0.003728617903767359
 10
0.8577146442236856
 20
-0.003536361390223581
 10
0.8631848756323197
 20
-0.003353702835563105
 10
0.8685645937558895
 20
-0.0031806389255762363
 10
0.8738524578558546
 20
-0.003017137187498496
 10
0.8790471500856227
 20
-0.0028631366326906955
 10
0.8841473758189854
 20
-0.0027185485321389205
 10
0.8891518639727651
 20
-0.0025832573164207948
 10
0.8940593673235961
 20
-0.002457121591307145
 10
0.8988686628187597
 20
-0.0023399752597712633
 10
0.9035785518809927
 20
-0.0022316287408605745
 10
0.9081878607071996
 20
-0.00213187027564671
 10
0.9126954405609882
 20
-0.002040467310309626
 10
0.9171001680589588
 20
-0.001957167946326966
 10
0.9214009454506753
 20
-0.0018817024477303286
 10
0.9255967008922472
 20
-0.0018137847954526726
 10
0.929686388713456
 20
-0.0017531142789233016
 10
0.9336689896783574
 20
-0.0016993771152655763
 10
0.9375435112392969
 20
-0.0016522480867139956
 10
0.9413089877842735
 20
-0.0016113921871878044
 10
0.9449644808775901
 20
-0.0015764662693332195
 10
0.9485090794937318
 20
-0.0015471206837709447
 10
0.9519419002444118
 20
-0.0015230009027547677
 10
0.9552620875987311
 20
-0.0015037491209549452
 10
0.9584688140963944
 20
-0.0014890058266210492
 10
0.9615612805539304
 20
-0.001478411336946714
 10
0.9645387162638652
 20
-0.0014716072920468765
 10
0.9674003791867991
 20
-0.0014682381025601303
 10
0.9701455561363378
 20
-0.0014679523464979738
 10
0.9727735629568336
 20
-0.0014704041115723497
 10
0.9752837446938913
 20
-0.0014752542798362486
 10
0.9776754757575974
 20
-0.0014821717520628055
 10
0.9799481600784286
 20
-0.0014908346098597947
 10
0.9821012312558058
 20
-0.0015009312140628309
 10
0.9841341526992536
 20
-0.001512161238466094
 10
0.9860464177621284
 20
-0.0015242366384288768
 10
0.9878375498678869
 20
-0.0015368825543349998
 10
0.9895071026288573
 20
-0.0015498381502759798
 10
0.9910546599574902
 20
-0.001562857388674483
 10
0.9924798361700553
 20
-0.0015757097418591434
 10
0.9937822760827619
 20
-0.0015881808418435
 10
0.9949616551002786
 20
-0.0016000730697493526
 10
0.9960176792966289
 20
-0.0016112060864479074
 10
0.9969500854884439
 20
-0.0016214173060712601
 10
0.997758641300553
 20
-0.0016305623140733003
 10
0.9984431452238967
 20
-0.001638515231495152
 10
0.9990034266657467
 20
-0.001645169027018785
 10
0.9994393459922217
 20
-0.0016504357782769728
 10
0.9997507945630869
 20
-0.001654246883732844
 10
0.9999376947588287
 20
-0.0016565532262526569
 10
1.0
 20
-0.0016573252892768601
  0
ENDSEC
  0
SECTION
  2
OBJECTS
  0
DICTIONARY
  5
A
330
0
100
AcDbDictionary
281
1
  3
ACAD_COLOR
350
B
  3
ACAD_GROUP
350
C
  3
ACAD_LAYOUT
350
D
  3
ACAD_MATERIAL
350
E
  3
ACAD_MLEADERSTYLE
350
F
  3
ACAD_MLINESTYLE
350
10
  3
ACAD_PLOTSETTINGS
350
11
  3
ACAD_PLOTSTYLENAME
350
12
  3
ACAD_SCALELIST
350
14
  3
ACAD_TABLESTYLE
350
15
  3
ACAD_VISUALSTYLE
350
16
  3
EZDXF_META
350
2D
  0
DICTIONARY
  5
B
330
A
100
AcDbDictionary
281
1
  0
DICTIONARY
  5
C
330
A
100
AcDbDictionary
281
1
  0
DICTIONARY
  5
D
330
A
100
AcDbDictionary
281
1
  3
Model
350
1A
  3
Layout1
350
1E
  0
DICTIONARY
  5
E
330
A
100
AcDbDictionary
281
1
  3
ByBlock
350
1F
  3
ByLayer
350
20
  3
Global
350
21
  0
DICTIONARY
  5
F
330
A
100
AcDbDictionary
281
1
  3
Standard
350
2C
  0
DICTIONARY
  5
10
330
A
100
AcDbDictionary
281
1
  3
Standard
350
22
  0
DICTIONARY
  5
11
330
A
100
AcDbDictionary
281
1
  0
ACDBDICTIONARYWDFLT
  5
12
330
A
100
AcDbDictionary
281
1
  3
Normal
350
13
100
AcDbDictionaryWithDefault
340
13
  0
ACDBPLACEHOLDER
  5
13
330
12
  0
DICTIONARY
  5
14
330
A
100
AcDbDictionary
281
1
  0
DICTIONARY
  5
15
330
A
100
AcDbDictionary
281
1
  0
DICTIONARY
  5
16
330
A
100
AcDbDictionary
281
1
  0
LAYOUT
  5
1A
330
D
100
AcDbPlotSettings
  1

  4
A3
  6

 40
7.5
 41
20.0
 42
7.5
 43
20.0
 44
420.0
 45
297.0
 46
0.0
 47
0.0
 48
0.0
 49
0.0
140
0.0
141
0.0
142
1.0
143
1.0
 70
1024
 72
1
 73
0
 74
5
  7

 75
16
 76
0
 77
2
 78
300
147
1.0
148
0.0
149
0.0
100
AcDbLayout
  1
Model
 70
1
 71
0
 10
0.0
 20
0.0
 11
420.0
 21
297.0
 12
0.0
 22
0.0
 32
0.0
 14
1e+20
 24
1e+20
 34
1e+20
 15
-1e+20
 25
-1e+20
 35
-1e+20
146
0.0
 13
0.0
 23
0.0
 33
0.0
 16
1.0
 26
0.0
 36
0.0
 17
0.0
 27
1.0
 37
0.0
 76
1
330
17
  0
LAYOUT
  5
1E
330
D
100
AcDbPlotSettings
  1

  4
A3
  6

 40
7.5
 41
20.0
 42
7.5
 43
20.0
 44
420.0
 45
297.0
 46
0.0
 47
0.0
 48
0.0
 49
0.0
140
0.0
141
0.0
142
1.0
143
1.0
 70
0
 72
1
 73
0
 74
5
  7

 75
16
 76
0
 77
2
 78
300
147
1.0
148
0.0
149
0.0
100
AcDbLayout
  1
Layout1
 70
1
 71
1
 10
0.0
 20
0.0
 11
420.0
 21
297.0
 12
0.0
 22
0.0
 32
0.0
 14
1e+20
 24
1e+20
 34
1e+20
 15
-1e+20
 25
-1e+20
 35
-1e+20
146
0.0
 13
0.0
 23
0.0
 33
0.0
 16
1.0
 26
0.0
 36
0.0
 17
0.0
 27
1.0
 37
0.0
 76
1
330
1B
  0
MATERIAL
  5
1F
102
{ACAD_REACTORS
330
E
102
}
330
E
100
AcDbMaterial
  1
ByBlock
  2

 70
0
 40
1.0
 71
1
 41
1.0
 91
-1023410177
 42
1.0
 72
1
  3

 73
1
 74
1
 75
1
 44
0.5
 73
0
 45
1.0
 46
1.0
 77
1
  4

 78
1
 79
1
170
1
 48
1.0
171
1
  6

172
1
173
1
174
1
140
1.0
141
1.0
175
1
  7

176
1
177
1
178
1
143
1.0
179
1
  8

270
1
271
1
272
1
145
1.0
146
1.0
273
1
  9

274
1
275
1
276
1
 42
1.0
 72
1
  3

 73
1
 74
1
 75
1
 94
63
  0
MATERIAL
  5
20
102
{ACAD_REACTORS
330
E
102
}
330
E
100
AcDbMaterial
  1
ByLayer
  2

 70
0
 40
1.0
 71
1
 41
1.0
 91
-1023410177
 42
1.0
 72
1
  3

 73
1
 74
1
 75
1
 44
0.5
 73
0
 45
1.0
 46
1.0
 77
1
  4

 78
1
 79
1
170
1
 48
1.0
171
1
  6

172
1
173
1
174
1
140
1.0
141
1.0
175
1
  7

176
1
177
1
178
1
143
1.0
179
1
  8

270
1
271
1
272
1
145
1.0
146
1.0
273
1
  9

274
1
275
1
276
1
 42
1.0
 72
1
  3

 73
1
 74
1
 75
1
 94
63
  0
MATERIAL
  5
21
102
{ACAD_REACTORS
330
E
102
}
330
E
100
AcDbMaterial
  1
Global
  2

 70
0
 40
1.0
 71
1
 41
1.0
 91
-1023410177
 42
1.0
 72
1
  3

 73
1
 74
1
 75
1
 44
0.5
 73
0
 45
1.0
 46
1.0
 77
1
  4

 78
1
 79
1
170
1
 48
1.0
171
1
  6

172
1
173
1
174
1
140
1.0
141
1.0
175
1
  7

176
1
177
1
178
1
143
1.0
179
1
  8

270
1
271
1
272
1
145
1.0
146
1.0
273
1
  9

274
1
275
1
276
1
 42
1.0
 72
1
  3

 73
1
 74
1
 75
1
 94
63
  0
MLINESTYLE
  5
22
102
{ACAD_REACTORS
330
10
102
}
330
10
100
AcDbMlineStyle
  2
Standard
 70
0
  3

 62
256
 51
90.0
 52
90.0
 71
2
 49
0.5
 62
256
  6
BYLAYER
 49
-0.5
 62
256
  6
BYLAYER
  0
MLEADERSTYLE
  5
2C
102
{ACAD_REACTORS
330
F
102
}
330
F
100
AcDbMLeaderStyle
179
2
170
2
171
1
172
0
 90
2
 40
0.0
 41
0.0
173
1
 91
-1056964608
 92
-2
290
1
 42
2.0
291
1
 43
8.0
  3
Standard
 44
4.0
300

342
29
174
1
175
1
176
0
178
1
 93
-1056964608
 45
4.0
292
0
297
0
 46
4.0
 94
-1056964608
 47
1.0
 49
1.0
140
1.0
294
1
141
0.0
177
0
142
1.0
295
0
296
0
143
3.75
271
0
272
9
273
9
  0
DICTIONARY
  5
2D
330
A
100
AcDbDictionary
280
1
281
1
  3
CREATED_BY_EZDXF
350
2E
  3
WRITTEN_BY_EZDXF
350
32
  0
DICTIONARYVAR
  5
2E
330
2D
100
DictionaryVariables
280
0
  1
1.4.3 @ 2026-04-01T14:56:28.316706+00:00
  0
DICTIONARYVAR
  5
32
330
2D
100
DictionaryVariables
280
0
  1
1.4.3 @ 2026-04-01T14:56:28.321217+00:00
  0
ENDSEC
  0
EOF
